<svg width="25" height="26" viewBox="0 0 25 26" fill="none" xmlns="http://www.w3.org/2000/svg">
<g clip-path="url(#clip0_7_489)">
<path fill-rule="evenodd" clip-rule="evenodd" d="M0 13C0 9.55219 1.27758 6.24558 3.55169 3.80761C5.8258 1.36964 8.91015 0 12.1262 0C15.3423 0 18.4267 1.36964 20.7008 3.80761C22.9749 6.24558 24.2525 9.55219 24.2525 13C24.2525 16.4478 22.9749 19.7544 20.7008 22.1924C18.4267 24.6304 15.3423 26 12.1262 26C8.91015 26 5.8258 24.6304 3.55169 22.1924C1.27758 19.7544 0 16.4478 0 13H0ZM11.4342 18.564L18.4157 9.20747L17.1546 8.12587L11.2014 16.1009L6.98471 12.3344L5.94994 13.6656L11.4342 18.5657V18.564Z" fill="#53BB96"/>
</g>
<defs>
<clipPath id="clip0_7_489">
<rect width="24.2525" height="26" fill="white"/>
</clipPath>
</defs>
</svg>
