<?xml version="1.0" encoding="UTF-8"?>
<!DOCTYPE svg PUBLIC "-//W3C//DTD SVG 1.1//EN" "http://www.w3.org/Graphics/SVG/1.1/DTD/svg11.dtd">
<!-- Creator: CorelDRAW X7 -->
<svg xmlns="http://www.w3.org/2000/svg" xml:space="preserve" width="210mm" height="297mm" version="1.1" style="shape-rendering:geometricPrecision; text-rendering:geometricPrecision; image-rendering:optimizeQuality; fill-rule:evenodd; clip-rule:evenodd"
viewBox="0 0 21000 29700"
 xmlns:xlink="http://www.w3.org/1999/xlink">
 <defs>
  <style type="text/css">
   <![CDATA[
    .fil1 {fill:none}
    .fil6 {fill:#638A55}
    .fil7 {fill:#9ABB74}
    .fil9 {fill:#C38D5F}
    .fil8 {fill:#FCE7B2}
    .fil0 {fill:#C38D5F;fill-rule:nonzero}
    .fil10 {fill:#E1B183;fill-rule:nonzero}
    .fil15 {fill:url(#id0)}
    .fil11 {fill:url(#id1)}
    .fil14 {fill:url(#id2)}
    .fil17 {fill:url(#id3)}
    .fil13 {fill:url(#id4)}
    .fil18 {fill:url(#id5)}
    .fil12 {fill:url(#id6)}
    .fil16 {fill:url(#id7)}
    .fil4 {fill:url(#id8);fill-rule:nonzero}
    .fil3 {fill:url(#id9);fill-rule:nonzero}
    .fil2 {fill:url(#id10);fill-rule:nonzero}
    .fil5 {fill:url(#id11);fill-rule:nonzero}
   ]]>
  </style>
  <linearGradient id="id0" gradientUnits="userSpaceOnUse" x1="7563.9" y1="12593.9" x2="7672.99" y2="12456.1">
   <stop offset="0" style="stop-opacity:1; stop-color:#53BB96"/>
   <stop offset="1" style="stop-opacity:1; stop-color:#82E0BF"/>
  </linearGradient>
  <linearGradient id="id1" gradientUnits="userSpaceOnUse" xlink:href="#id0" x1="7085.48" y1="17094.8" x2="8452.23" y2="15369.2">
  </linearGradient>
  <linearGradient id="id2" gradientUnits="userSpaceOnUse" xlink:href="#id0" x1="9386.38" y1="12534.8" x2="9545.61" y2="12333.7">
  </linearGradient>
  <linearGradient id="id3" gradientUnits="userSpaceOnUse" xlink:href="#id0" x1="8968.29" y1="12107.6" x2="9054.99" y2="11998.2">
  </linearGradient>
  <linearGradient id="id4" gradientUnits="userSpaceOnUse" xlink:href="#id0" x1="7616.55" y1="13784.1" x2="6964.85" y2="13312.6">
  </linearGradient>
  <linearGradient id="id5" gradientUnits="userSpaceOnUse" xlink:href="#id0" x1="7900.4" y1="13075.4" x2="7974.29" y2="12982.1">
  </linearGradient>
  <linearGradient id="id6" gradientUnits="userSpaceOnUse" xlink:href="#id0" x1="8772.06" y1="13710.2" x2="8083.02" y2="13375.2">
  </linearGradient>
  <linearGradient id="id7" gradientUnits="userSpaceOnUse" xlink:href="#id0" x1="8382.78" y1="12801.9" x2="8637.37" y2="12480.5">
  </linearGradient>
  <linearGradient id="id8" gradientUnits="userSpaceOnUse" x1="10591.3" y1="15178.9" x2="13357" y2="12787.6">
   <stop offset="0" style="stop-opacity:1; stop-color:#53BB96"/>
   <stop offset="1" style="stop-opacity:1; stop-color:#7AF5CA"/>
  </linearGradient>
  <linearGradient id="id9" gradientUnits="userSpaceOnUse" x1="10546.5" y1="15220.1" x2="13312.3" y2="12828.8">
   <stop offset="0" style="stop-opacity:1; stop-color:#7AF5CA"/>
   <stop offset="1" style="stop-opacity:1; stop-color:#53BB96"/>
  </linearGradient>
  <linearGradient id="id10" gradientUnits="userSpaceOnUse" x1="10505.6" y1="17283.7" x2="13442.7" y2="15114.9">
   <stop offset="0" style="stop-opacity:1; stop-color:#EAB612"/>
   <stop offset="1" style="stop-opacity:1; stop-color:#EE8808"/>
  </linearGradient>
  <linearGradient id="id11" gradientUnits="userSpaceOnUse" x1="10549.8" y1="17239.5" x2="13486.9" y2="15070.7">
   <stop offset="0" style="stop-opacity:1; stop-color:#EE8808"/>
   <stop offset="1" style="stop-opacity:1; stop-color:#EAB612"/>
  </linearGradient>
 </defs>
 <g id="Layer_x0020_1">
  <metadata id="CorelCorpID_0Corel-Layer"/>
  <g id="_729891832">
   <g>
    <path class="fil0" d="M5631 17650c58,12 118,11 176,2 2284,-346 4721,-447 7017,-330 1059,58 4280,668 1775,164 -1058,-153 -8809,-494 -8968,164z"/>
   </g>
   <path class="fil1" d="M5469 17344c3414,129 6876,260 10058,381"/>
   <path class="fil2" d="M13995 15569l217 0 98 247 -315 0 0 507c0,64 15,116 45,155 31,40 74,59 130,59 42,0 86,-10 130,-32l94 232c-25,20 -61,37 -110,52 -48,15 -92,22 -132,22 -149,0 -266,-38 -349,-113 -84,-76 -126,-182 -126,-318l0 -564 -160 0 0 -247 160 0 0 -283 318 -57 0 340zm-638 1214l0 -1195 -321 0 0 1195 321 0zm19 350c0,-51 -17,-94 -53,-128 -35,-35 -78,-52 -129,-52 -49,0 -91,17 -126,52 -34,34 -52,77 -52,128 0,51 18,93 52,128 35,34 77,52 126,52 51,0 94,-18 129,-52 36,-35 53,-77 53,-128zm-1252 -598c56,0 109,-13 158,-38 49,-26 104,-60 163,-102l0 -828 320 0 0 1195 -209 0 -55 -128c-73,52 -152,93 -236,123 -84,29 -159,44 -224,44 -151,0 -257,-43 -318,-128 -61,-85 -91,-205 -91,-357l0 -749 320 0 0 734c0,74 15,131 46,172 30,42 72,62 126,62zm-643 -712c-54,0 -121,20 -201,59 -79,39 -154,90 -223,150l0 730 -320 0 0 -1195 168 0 106 199c57,-51 124,-97 202,-138 77,-41 145,-61 204,-61l64 256zm-1609 -20l525 0 47 249 -572 0 0 710 -318 0 0 -1676 949 0 49 251 -680 0 0 466z"/>
   <path class="fil3" d="M13944 14857c-59,26 -132,45 -221,58 -88,13 -165,12 -230,-5l3 -250c140,2 252,-15 336,-51 48,-20 88,-47 120,-82 32,-34 41,-67 28,-99 -27,-62 -116,-85 -269,-68 -125,10 -236,2 -334,-24 -97,-26 -165,-82 -202,-169 -47,-110 -44,-214 11,-311 54,-97 150,-176 288,-235 54,-23 125,-40 212,-51 87,-11 166,-10 235,4l-4 247c-72,-2 -134,2 -186,9 -52,7 -104,22 -155,43 -39,17 -68,41 -86,73 -17,31 -21,60 -9,87 9,20 32,32 70,36 38,3 91,3 159,-2 130,-7 246,5 348,37 102,32 173,93 212,186 50,115 47,222 -9,320 -56,99 -162,181 -317,247zm-877 -1763l0 1829 -335 0 0 -1800 335 -29zm-1226 1278c-55,0 -100,17 -133,51 -34,35 -51,76 -51,125 0,38 15,71 46,98 30,28 68,42 115,42 100,0 192,-42 277,-125l0 -191 -254 0zm49 -428c-57,0 -120,8 -189,25 -69,16 -128,36 -176,58l-91 -280c45,-29 117,-55 215,-79 99,-23 178,-35 236,-35 100,0 192,20 275,60 83,40 149,95 198,166 49,70 74,150 74,238l0 826 -220 0 -57 -134c-106,110 -216,165 -332,165 -150,0 -263,-36 -339,-110 -76,-73 -114,-172 -114,-296 0,-128 43,-227 129,-297 87,-70 202,-105 347,-105l246 0c-1,-64 -20,-113 -55,-149 -36,-35 -84,-53 -147,-53zm-2002 -199l0 1178 -334 0 0 -1761 334 0 816 1176 0 -1176 337 0 0 1761 -337 0 -816 -1178z"/>
   <path class="fil4" d="M13989 14816c-59,25 -133,45 -221,58 -88,13 -165,11 -230,-6l3 -249c140,2 252,-15 336,-51 48,-20 87,-48 120,-82 32,-35 41,-68 28,-99 -27,-62 -116,-85 -269,-69 -125,11 -237,3 -334,-23 -98,-26 -165,-82 -202,-170 -47,-109 -44,-213 10,-310 55,-97 151,-176 289,-235 54,-23 125,-40 212,-51 87,-11 166,-10 235,3l-4 247c-72,-1 -134,2 -186,10 -53,7 -104,22 -155,43 -40,17 -68,41 -86,72 -18,31 -21,60 -9,87 9,21 32,33 70,37 38,3 91,2 159,-2 130,-7 246,5 348,37 102,31 172,93 212,185 49,116 46,223 -9,321 -56,98 -162,181 -317,247zm-878 -1763l0 1829 -334 0 0 -1800 334 -29zm-1225 1277c-55,0 -100,18 -133,52 -34,35 -51,76 -51,125 0,38 15,70 45,98 31,28 69,41 116,41 100,0 192,-41 277,-124l0 -192 -254 0zm49 -427c-57,0 -120,8 -189,25 -69,16 -128,35 -176,58l-91 -280c45,-29 117,-56 215,-79 99,-23 177,-35 236,-35 100,0 192,20 275,60 83,39 149,95 198,165 49,71 74,151 74,239l0 826 -221 0 -57 -135c-105,111 -215,166 -331,166 -150,0 -264,-36 -340,-110 -75,-73 -114,-172 -114,-296 0,-128 44,-227 130,-297 86,-70 202,-105 347,-105l246 0c-1,-64 -20,-114 -55,-149 -36,-35 -85,-53 -147,-53zm-2002 -200l0 1179 -335 0 0 -1761 335 0 816 1176 0 -1176 337 0 0 1761 -337 0 -816 -1179z"/>
   <path class="fil5" d="M14039 15525l217 0 98 246 -315 0 0 508c0,64 15,116 46,155 30,40 73,59 129,59 43,0 86,-10 131,-32l93 232c-24,20 -61,37 -109,52 -49,14 -93,22 -132,22 -150,0 -266,-38 -350,-114 -84,-75 -126,-181 -126,-317l0 -565 -160 0 0 -246 160 0 0 -284 318 -56 0 340zm-638 1213l0 -1195 -321 0 0 1195 321 0zm19 350c0,-51 -17,-93 -52,-128 -36,-34 -79,-51 -130,-51 -49,0 -91,17 -126,51 -34,35 -51,77 -51,128 0,51 17,94 51,129 35,34 77,51 126,51 51,0 94,-17 130,-51 35,-35 52,-78 52,-129zm-1251 -597c56,0 108,-13 157,-38 50,-26 104,-60 163,-103l0 -828 320 0 0 1196 -209 0 -54 -129c-74,53 -153,94 -237,124 -84,29 -158,44 -224,44 -151,0 -257,-43 -318,-128 -61,-86 -91,-205 -91,-358l0 -749 320 0 0 735c0,74 15,131 46,172 30,41 72,62 127,62zm-643 -712c-55,0 -122,19 -201,59 -80,39 -154,89 -223,150l0 730 -321 0 0 -1196 168 0 106 200c57,-51 125,-97 202,-138 77,-41 145,-62 204,-62l65 257zm-1610 -20l525 0 47 249 -572 0 0 710 -318 0 0 -1676 949 0 49 251 -680 0 0 466z"/>
   <g>
    <g>
     <path class="fil6" d="M7487 14259c99,-205 297,-319 497,-326l0 -1c1,0 2,0 2,1 1,-1 2,-1 2,-1l0 1c201,7 399,121 498,326 135,278 174,592 309,880 272,580 132,1030 -293,1330 -167,101 -344,147 -514,148l0 0c0,0 -1,0 -2,0 0,0 -1,0 -2,0l0 0c-170,-1 -346,-47 -514,-148 -424,-300 -564,-750 -292,-1330 135,-288 174,-602 309,-880z"/>
     <path class="fil7" d="M7511 16407c144,87 305,136 474,137l1 0 2 0c169,-1 330,-50 474,-137 145,-102 268,-233 337,-397 118,-277 53,-577 -71,-839 -60,-130 -103,-265 -143,-402 -37,-128 -73,-258 -123,-382 -13,-33 -27,-65 -42,-96 -81,-168 -247,-278 -434,-285 -186,7 -352,117 -433,285 -16,31 -29,63 -42,96 -50,124 -86,254 -124,382 -40,137 -82,272 -143,402 -123,262 -188,562 -71,839 70,164 193,295 338,397z"/>
     <path class="fil8" d="M7568 16319c127,76 269,119 418,120l0 0 1 0c148,-2 290,-44 417,-120 127,-90 237,-205 298,-350 105,-248 41,-520 -69,-754 -63,-134 -107,-274 -149,-416 -36,-125 -71,-252 -120,-373 -12,-30 -25,-60 -39,-89 -63,-132 -192,-219 -339,-226 -146,7 -275,94 -338,226 -15,29 -28,59 -40,89 -48,121 -83,248 -119,373 -42,142 -86,282 -149,416 -110,234 -175,506 -70,754 62,145 172,260 298,350z"/>
     <circle class="fil9" cx="7986" cy="15703" r="473"/>
     <path class="fil10" d="M7969 16074c-22,0 -40,-19 -39,-41 0,-22 19,-40 41,-39 5,0 10,0 15,0 90,-1 161,-38 211,-91 50,-53 78,-122 80,-189 0,-3 0,-7 0,-10 0,-23 18,-41 40,-41 22,0 41,18 41,40 0,5 0,9 0,14 -3,85 -38,174 -102,242 -64,68 -155,114 -270,116 -6,0 -11,0 -17,-1z"/>
     <path class="fil11" d="M6775 15372l-380 0c-48,0 -88,-40 -88,-88 0,-49 40,-88 88,-88l486 0c3,0 6,0 9,0l38 0c20,0 37,9 49,25 11,15 15,35 9,53 -80,257 -97,526 9,778 85,200 235,359 412,485 175,105 372,166 577,166l4 0c206,0 402,-61 578,-166 176,-126 327,-285 412,-485 106,-252 89,-521 9,-778 -6,-18 -3,-38 9,-53 11,-16 29,-25 48,-25l62 0c27,0 50,17 58,43 176,586 1,1094 -498,1447 -2,1 -3,1 -4,2 -26,16 -51,30 -78,44 -26,-12 -55,-21 -84,-25 -78,-10 -156,11 -218,59 -34,26 -62,59 -82,97 -69,12 -139,18 -210,19 -1,0 -2,0 -4,0 -1,0 -2,0 -3,0 -71,-1 -141,-7 -211,-19 -7,-15 -16,-29 -27,-43 -48,-62 -117,-102 -195,-113 -56,-7 -112,2 -162,25 -26,-14 -52,-29 -78,-44 -1,-1 -3,-2 -4,-3 -453,-320 -647,-773 -531,-1313zm771 1361c74,10 137,48 179,103 41,54 63,125 53,198 -10,74 -49,137 -103,179 -55,42 -125,63 -199,53 -73,-10 -136,-48 -178,-103 -42,-54 -63,-125 -53,-199 10,-73 48,-136 103,-178 54,-42 125,-63 198,-53zm87 173c-24,-31 -60,-53 -102,-59 -42,-5 -82,7 -113,31 -31,24 -53,59 -59,101 -5,42 7,83 31,114 24,31 59,53 101,59 42,5 83,-7 114,-31 31,-24 53,-59 59,-101 5,-42 -7,-83 -31,-114zm863 -173c74,10 137,48 179,103 42,54 63,125 53,198 -10,74 -48,137 -103,179 -55,42 -125,63 -199,53 -73,-10 -136,-48 -178,-103 -42,-54 -63,-125 -53,-199 10,-73 48,-136 103,-178 54,-42 125,-63 198,-53zm87 173c-24,-31 -60,-53 -101,-59 -42,-5 -83,7 -114,31 -31,24 -53,59 -59,101 -5,42 7,83 31,114 24,31 59,53 101,59 42,5 83,-7 114,-31 31,-24 53,-59 59,-101 5,-42 -7,-83 -31,-114z"/>
     <path class="fil12" d="M8842 13164c-503,-97 -856,150 -827,684 159,-279 311,-495 555,-585 -229,195 -395,409 -439,659 126,48 351,21 421,-200 74,-228 102,-342 290,-558z"/>
     <path class="fil13" d="M7520 13188c-310,-152 -597,-88 -861,72 219,120 409,325 567,609 98,148 439,175 583,32 -165,-290 -428,-492 -779,-618 255,-25 558,164 892,488 -43,-227 -141,-455 -402,-583z"/>
    </g>
    <g>
     <circle class="fil14" cx="9466" cy="12434" r="143"/>
     <circle class="fil15" cx="7618" cy="12525" r="98"/>
     <circle class="fil16" cx="8510" cy="12641" r="228"/>
     <circle class="fil17" cx="9012" cy="12053" r="78"/>
     <circle class="fil18" cx="7937" cy="13029" r="66"/>
    </g>
   </g>
  </g>
 </g>
</svg>
