<svg width="29" height="12" viewBox="0 0 29 12" fill="none" xmlns="http://www.w3.org/2000/svg">
<rect width="29" height="12" rx="4" fill="#ED5C5C"/>
<path d="M11.4064 5.09375C11.4064 5.09375 10.9377 5.53125 10.1408 6.04687C9.92207 4.78125 9.31269 3.21875 8.12519 1.3125C8.12519 1.3125 7.73457 3.35937 6.43769 5.28125C5.87519 4.40625 5.62519 3.71875 5.62519 3.71875C1.56269 7.79687 4.93769 10.6875 7.06269 10.6875C9.78144 10.6875 12.1721 9.375 11.4064 5.09375" fill="#FF9D33"/>
<path d="M9.79706 8.71875C10.0314 8.20312 10.2033 7.53125 10.2346 6.6875C10.2346 6.6875 9.90643 6.96875 9.34393 7.32812C9.18768 6.48437 8.76581 5.45312 7.93768 4.17188C7.93768 4.17188 7.67206 5.53125 6.76581 6.82812C6.37518 6.25 6.20331 5.78125 6.20331 5.78125C5.53143 6.84375 5.26581 7.6875 5.25018 8.35937C4.87518 8.21875 4.64081 8.10937 4.64081 8.10937C5.28143 10.0156 6.60956 10.4375 7.20331 10.4375C8.26581 10.4375 9.34393 10.125 10.4064 8.60937C10.4064 8.59375 10.1721 8.65625 9.79706 8.71875" fill="#FFCE31"/>
<path d="M5.92207 7.85937C5.92207 7.85937 6.35957 8.45312 6.6877 8.3125C6.6877 8.3125 7.3127 7.32812 8.21895 6.78125C8.21895 6.78125 8.03145 8.28125 8.2502 8.54687C8.53145 8.90625 9.29707 8.15625 9.29707 8.15625C9.29707 9.04687 8.32832 10.1562 7.45332 10.1562C6.60958 10.1562 5.39083 9.1875 5.92207 7.85937" fill="#FFDF85"/>
<path d="M10.2814 3.82812C10.6095 3.35937 10.8283 2.85937 10.8283 2.85937C11.3752 3.76562 11.047 4.3125 10.8127 4.48437C10.4845 4.73437 9.90642 4.375 10.2814 3.82812V3.82812ZM4.31267 3.67187C3.98455 3.125 3.9533 2.4375 3.9533 2.4375C3.17205 3.60937 3.46892 4.26562 3.73455 4.45312C4.0783 4.71875 4.67205 4.3125 4.31267 3.67187ZM6.12517 2.45312C6.17205 2.07812 6.0158 1.70312 6.0158 1.70312C6.75017 2.1875 6.75017 2.59375 6.65642 2.76562C6.5158 2.96875 6.0783 2.875 6.12517 2.45312Z" fill="#FF9D33"/>
<path d="M17.7801 4.33006V8.50006H17.0961V6.67606H15.1341V8.50006H14.4501V4.33006H15.1341V6.11806H17.0961V4.33006H17.7801ZM20.5825 8.54206C20.1945 8.54206 19.8365 8.45206 19.5085 8.27206C19.1845 8.08806 18.9265 7.83406 18.7345 7.51006C18.5465 7.18206 18.4525 6.81406 18.4525 6.40606C18.4525 5.99806 18.5465 5.63206 18.7345 5.30806C18.9265 4.98406 19.1845 4.73206 19.5085 4.55206C19.8365 4.36806 20.1945 4.27606 20.5825 4.27606C20.9745 4.27606 21.3325 4.36806 21.6565 4.55206C21.9845 4.73206 22.2425 4.98406 22.4305 5.30806C22.6185 5.63206 22.7125 5.99806 22.7125 6.40606C22.7125 6.81406 22.6185 7.18206 22.4305 7.51006C22.2425 7.83406 21.9845 8.08806 21.6565 8.27206C21.3325 8.45206 20.9745 8.54206 20.5825 8.54206ZM20.5825 7.94806C20.8585 7.94806 21.1045 7.88606 21.3205 7.76206C21.5365 7.63406 21.7045 7.45406 21.8245 7.22206C21.9485 6.98606 22.0105 6.71406 22.0105 6.40606C22.0105 6.09806 21.9485 5.82806 21.8245 5.59606C21.7045 5.36406 21.5365 5.18606 21.3205 5.06206C21.1045 4.93806 20.8585 4.87606 20.5825 4.87606C20.3065 4.87606 20.0605 4.93806 19.8445 5.06206C19.6285 5.18606 19.4585 5.36406 19.3345 5.59606C19.2145 5.82806 19.1545 6.09806 19.1545 6.40606C19.1545 6.71406 19.2145 6.98606 19.3345 7.22206C19.4585 7.45406 19.6285 7.63406 19.8445 7.76206C20.0605 7.88606 20.3065 7.94806 20.5825 7.94806ZM26.0796 4.33006V4.88806H24.9696V8.50006H24.2856V4.88806H23.1696V4.33006H26.0796Z" fill="#F2F2F2"/>
</svg>
