<svg width="135" height="41" viewBox="0 0 135 41" fill="none" xmlns="http://www.w3.org/2000/svg">
<path fill-rule="evenodd" clip-rule="evenodd" d="M103.253 17.4314C109.937 15.6402 110.927 26.2968 105.902 28.0741C99.1411 30.4716 97.6775 18.9299 103.253 17.4314ZM34.6093 34.2352C35.1948 35.5525 37.9129 37.7479 39.5229 38.6052C49.4756 43.909 58.1249 36.8209 59.01 34.1934C56.3128 34.291 54.9955 33.7543 53.0858 35.0158C49.9565 37.0858 46.4926 37.6782 42.8614 36.2494C38.6657 34.5907 42.3735 34.2073 34.6093 34.2352ZM35.0833 9.58363C39.3557 9.44424 38.5681 10.2876 40.7984 7.48578C47.1268 -0.438688 51.1831 5.75731 54.5006 9.55576H58.55C57.0724 5.90367 51.4967 0.0491851 46.8689 0.000397764C41.8787 -0.0623289 35.606 7.31154 35.0833 9.58363ZM28.0021 31.8237L36.5121 14.4763C31.7866 14.4484 32.7833 13.8351 31.3267 17.1945L27.8697 25.4883L25.7649 19.9126C25.2631 18.7487 23.8692 15.236 23.2628 14.4693L19.311 14.4554L28.0021 31.8237ZM72.3917 26.3874C71.3393 26.8335 71.3671 27.5583 69.6944 28.0113C66.2933 28.9313 62.8572 27.175 62.7527 22.9026C62.683 20.1914 64.0072 18.1702 66.0423 17.4942C68.9347 16.5393 70.7608 17.9193 72.4195 18.9717L72.4126 15.2778C71.9038 13.0197 58.7521 12.2182 58.8288 22.9026C58.8776 29.9977 65.6799 33.8658 72.4056 30.5274L72.3917 26.3874ZM41.8299 23.6344C40.8262 16.0863 51.2319 15.0966 51.9707 21.9756C52.7861 29.5098 42.7499 30.4855 41.8299 23.6344ZM37.892 24.1292C38.2057 26.708 39.7181 28.4644 41.2305 29.7607C46.855 34.5976 57.1491 29.8931 55.9434 21.4529C54.3613 10.3921 36.3796 11.8279 37.892 24.1292ZM125.026 17.3687C132.017 16.2884 132.783 27.0635 126.915 28.1995C119.715 29.5865 118.795 18.3305 125.026 17.3687ZM116.788 23.6344C117.868 34.9879 135.697 33.9634 134.979 22.1499C134.268 10.5524 115.631 11.5491 116.788 23.6344ZM87.9967 24.6171C86.4633 30.7504 77.3192 29.231 79.2707 20.8605C80.6925 14.7481 90.0248 16.5114 87.9967 24.6171ZM88.0315 16.846C86.2264 12.4063 74.9356 11.9394 75.061 22.8956C75.1656 31.4334 82.3722 33.4198 86.6097 30.4368C87.2927 29.9628 87.5854 29.4122 88.0803 29.1334L88.157 31.0292L91.8997 31.0152V14.4554L88.1082 14.4624L88.0315 16.846ZM7.37206 17.4384C14.0629 15.5915 15.0665 26.3247 10.0205 28.081C3.30877 30.4158 1.84515 18.9578 7.37206 17.4384ZM13.0941 16.7414C11.756 16.0096 12.2299 14.7899 9.4281 14.1139C-0.998458 11.6048 -2.8942 27.7953 4.32633 31.0152C9.58143 33.364 12.5156 29.3425 13.0802 29.1474L13.0941 31.0431L16.8926 31.0013L16.8995 14.4624L13.0732 14.4484L13.0941 16.7414ZM108.926 16.853C107.86 15.6263 107.47 14.6854 105.518 14.1557C95.0917 11.3191 92.7918 27.8022 100.2 31.0292C105.546 33.357 108.167 29.4053 108.961 29.1334L108.975 31.0501L112.746 30.9595L112.774 3.93824L108.954 3.9243L108.926 16.853Z" fill="#53BB96"/>
</svg>
