<svg width="33" height="32" viewBox="0 0 33 32" fill="none" xmlns="http://www.w3.org/2000/svg">
<circle cx="16.5001" cy="15.7618" r="15.7618" fill="#ED5B5C"/>
<g clip-path="url(#clip0_7_474)">
<path d="M20.1 7.69052C20.9245 7.72843 21.4945 7.84961 22.0212 8.05404C22.5206 8.24075 22.9726 8.53521 23.3453 8.91648C23.7266 9.28913 24.021 9.74122 24.2077 10.2406C24.4122 10.7679 24.5333 11.3372 24.5713 12.1618C24.618 13.184 24.6234 13.5441 24.6234 15.7618C24.6234 17.9795 24.618 18.3396 24.5713 19.3618C24.5333 20.1863 24.4122 20.7563 24.2077 21.2837C24.0209 21.7828 23.7265 22.2346 23.3453 22.6071C22.9727 22.9884 22.5206 23.2828 22.0212 23.4695C21.4938 23.674 20.9245 23.7952 20.1 23.8331C19.0778 23.8798 18.7183 23.8852 16.5 23.8852C14.2816 23.8852 13.9215 23.8798 12.9 23.8331C12.0754 23.7952 11.5054 23.674 10.9781 23.4695C10.479 23.2828 10.0271 22.9883 9.65467 22.6071C9.2734 22.2345 8.97894 21.7824 8.79223 21.283C8.5878 20.7556 8.46662 20.1863 8.42871 19.3618C8.382 18.341 8.37659 17.9808 8.37659 15.7618C8.37659 13.5434 8.382 13.1826 8.42871 12.1618C8.46662 11.3372 8.5878 10.7673 8.79223 10.2406C8.97894 9.74122 9.2734 9.28913 9.65467 8.91648C10.0271 8.5353 10.479 8.24084 10.9781 8.05404C11.5061 7.84961 12.0754 7.72843 12.9 7.69052C13.9208 7.64381 14.2809 7.6384 16.5 7.6384C18.7183 7.6384 19.0792 7.64381 20.1 7.69052ZM16.5 9.44382C14.3067 9.44382 13.9709 9.44856 12.9819 9.49392C12.3543 9.52235 11.978 9.60223 11.632 9.73694C11.3376 9.85202 11.15 9.97387 10.9307 10.1925C10.7114 10.4119 10.5895 10.5994 10.4751 10.8938C10.3411 11.2391 10.2605 11.6162 10.2321 12.2437C10.1868 13.2327 10.182 13.5685 10.182 15.7618C10.182 17.9551 10.1868 18.2909 10.2321 19.2799C10.2605 19.9074 10.3404 20.2838 10.4751 20.6291C10.5902 20.9242 10.7121 21.1117 10.9307 21.3311C11.15 21.5504 11.3376 21.6722 11.632 21.7866C11.9773 21.9207 12.3543 22.0012 12.9819 22.0297C13.9716 22.075 14.3073 22.0798 16.5 22.0798C18.6933 22.0798 19.0284 22.075 20.0181 22.0297C20.6456 22.0012 21.022 21.9214 21.3679 21.7866C21.6624 21.6716 21.8499 21.5497 22.0692 21.3311C22.2886 21.1117 22.4104 20.9242 22.5248 20.6297C22.6589 20.2845 22.7394 19.9074 22.7679 19.2799C22.8132 18.2902 22.818 17.9544 22.818 15.7618C22.818 13.5692 22.8132 13.2334 22.7679 12.2437C22.7394 11.6162 22.6595 11.2398 22.5248 10.8945C22.4291 10.6285 22.2732 10.3883 22.0692 10.1925C21.8735 9.98857 21.6332 9.83265 21.3672 9.73694C21.022 9.6029 20.6449 9.52235 20.0174 9.49392C19.0284 9.44856 18.6926 9.44382 16.4993 9.44382H16.5ZM16.5 19.9738C15.3829 19.9738 14.3116 19.53 13.5217 18.7401C12.7318 17.9502 12.288 16.8789 12.288 15.7618C12.288 14.6447 12.7318 13.5734 13.5217 12.7835C14.3116 11.9936 15.3829 11.5498 16.5 11.5498C17.6171 11.5498 18.6884 11.9936 19.4783 12.7835C20.2682 13.5734 20.712 14.6447 20.712 15.7618C20.712 16.8789 20.2682 17.9502 19.4783 18.7401C18.6884 19.53 17.6171 19.9738 16.5 19.9738ZM16.5 18.169C17.1384 18.169 17.7507 17.9154 18.2022 17.464C18.6536 17.0125 18.9072 16.4002 18.9072 15.7618C18.9072 15.1234 18.6536 14.5111 18.2022 14.0596C17.7507 13.6082 17.1384 13.3546 16.5 13.3546C15.8615 13.3546 15.2493 13.6082 14.7978 14.0596C14.3464 14.5111 14.0927 15.1234 14.0927 15.7618C14.0927 16.4002 14.3464 17.0125 14.7978 17.464C15.2493 17.9154 15.8615 18.169 16.5 18.169ZM20.712 12.4522C20.4725 12.4522 20.2429 12.3571 20.0736 12.1878C19.9044 12.0185 19.8092 11.7889 19.8092 11.5495C19.8092 11.3101 19.9044 11.0805 20.0736 10.9112C20.2429 10.7419 20.4725 10.6468 20.712 10.6468C20.9514 10.6468 21.181 10.7419 21.3503 10.9112C21.5196 11.0805 21.6147 11.3101 21.6147 11.5495C21.6147 11.7889 21.5196 12.0185 21.3503 12.1878C21.181 12.3571 20.9514 12.4522 20.712 12.4522Z" fill="#FCFCFC"/>
</g>
<defs>
<clipPath id="clip0_7_474">
<rect width="16.2468" height="16.2468" fill="white" transform="translate(8.37659 7.6384)"/>
</clipPath>
</defs>
</svg>
