<svg width="20" height="26" viewBox="0 0 20 26" fill="none" xmlns="http://www.w3.org/2000/svg">
<path d="M16.3362 18.3883C15.3688 22.4178 11.3175 24.8963 7.2929 23.93C3.26296 22.9625 0.783293 18.9161 1.75069 14.8866C1.77785 14.7735 1.80817 14.6668 1.84023 14.5548C2.12043 13.5721 2.60066 12.6579 3.25078 11.8696C3.7012 11.2373 4.2053 10.607 4.71526 9.97394C6.08466 8.26838 7.48812 6.54652 7.95321 4.60926C8.07169 4.11524 8.28634 3.64941 8.5849 3.23838C8.88346 2.82734 9.26008 2.47916 9.69324 2.21372C10.1264 1.94828 10.6076 1.77078 11.1094 1.69137C11.6112 1.61195 12.1237 1.63218 12.6176 1.75089C14.6912 2.24871 15.9749 4.33734 15.4759 6.41577C15.0108 8.35303 15.4792 10.5238 15.9251 12.6652C16.0921 13.4608 16.2555 14.2513 16.3692 15.0195C16.5186 16.0746 16.5767 17.0984 16.407 18.0525C16.3844 18.1662 16.3634 18.2752 16.3362 18.3883Z" fill="#B1CC33"/>
<path d="M8.14829 20.3658C10.2264 20.8647 12.3155 19.5846 12.8144 17.5065C13.3133 15.4284 12.0331 13.3393 9.95499 12.8404C7.87689 12.3415 5.78782 13.6216 5.28891 15.6997C4.79 17.7778 6.07019 19.8669 8.14829 20.3658Z" fill="#A57939" stroke="#A57939" stroke-miterlimit="10" stroke-linecap="round" stroke-linejoin="round"/>
<path d="M12.8135 17.504C12.3142 19.5837 10.2279 20.8656 8.14859 20.3664C8.14859 20.3664 13.2331 18.1831 9.95551 12.8401C10.9529 13.0797 11.8143 13.7056 12.3503 14.5802C12.8862 15.4548 13.0529 16.5065 12.8135 17.504Z" fill="#6A462F"/>
<path d="M16.3362 18.3883C15.3688 22.4178 11.3175 24.8963 7.2929 23.93C3.26296 22.9625 0.783293 18.9161 1.75069 14.8866C1.77785 14.7735 1.80817 14.6668 1.84023 14.5548C2.12043 13.5721 2.60066 12.6579 3.25078 11.8696C3.7012 11.2373 4.2053 10.607 4.71526 9.97394C6.08466 8.26838 7.48812 6.54652 7.95321 4.60926C8.07169 4.11524 8.28634 3.64941 8.5849 3.23838C8.88346 2.82734 9.26008 2.47916 9.69324 2.21372C10.1264 1.94828 10.6076 1.77078 11.1094 1.69137C11.6112 1.61195 12.1237 1.63218 12.6176 1.75089C14.6912 2.24871 15.9749 4.33734 15.4759 6.41577C15.0108 8.35303 15.4792 10.5238 15.9251 12.6652C16.0921 13.4608 16.2555 14.2513 16.3692 15.0195C16.5186 16.0746 16.5767 17.0984 16.407 18.0525C16.3844 18.1662 16.3634 18.2752 16.3362 18.3883Z" stroke="black" stroke-miterlimit="10"/>
<path d="M8.14829 20.3658C10.2264 20.8647 12.3155 19.5846 12.8144 17.5065C13.3133 15.4284 12.0331 13.3393 9.95499 12.8404C7.87689 12.3415 5.78782 13.6216 5.28891 15.6997C4.79 17.7778 6.07019 19.8669 8.14829 20.3658Z" stroke="black" stroke-miterlimit="10" stroke-linecap="round" stroke-linejoin="round"/>
</svg>
