<svg width="24" height="23" viewBox="0 0 24 23" fill="none" xmlns="http://www.w3.org/2000/svg">
<path d="M20.0885 10.9564L11.4877 3.5915C11.4217 3.53535 11.3374 3.50391 11.2486 3.50391H9.23389C9.06543 3.50391 8.98802 3.71055 9.11551 3.81836L17.088 10.6465H3.76562C3.66545 10.6465 3.5835 10.7273 3.5835 10.8262V12.1738C3.5835 12.2727 3.66545 12.3535 3.76562 12.3535H17.0857L9.11323 19.1816C8.98575 19.2917 9.06315 19.4961 9.23162 19.4961H11.3147C11.3579 19.4961 11.4012 19.4804 11.433 19.4512L20.0885 12.0436C20.1673 11.9759 20.2305 11.8924 20.2738 11.7987C20.3171 11.7049 20.3395 11.603 20.3395 11.5C20.3395 11.397 20.3171 11.2951 20.2738 11.2013C20.2305 11.1076 20.1673 11.0241 20.0885 10.9564Z" fill="#FCFCFC"/>
</svg>
