<svg width="182" height="182" viewBox="0 0 182 182" fill="none" xmlns="http://www.w3.org/2000/svg">
<g opacity="0.3" filter="url(#filter0_dddddd_232_862)">
<path fill-rule="evenodd" clip-rule="evenodd" d="M91 164C131.317 164 164 131.317 164 91C164 50.6832 131.317 18 91 18C74.6115 18 59.4843 23.4005 47.301 32.5189C49.5975 35.0127 51 38.3426 51 42C51 49.732 44.732 56 37 56C33.8284 56 30.9032 54.9454 28.5558 53.1677C21.8571 64.2005 18 77.1498 18 91C18 131.317 50.6832 164 91 164ZM27.0299 51.8283C20.0338 63.229 16 76.6434 16 91C16 132.421 49.5786 166 91 166C132.421 166 166 132.421 166 91C166 49.5786 132.421 16 91 16C74.0359 16 58.3872 21.6322 45.8219 31.1287C43.4142 29.1724 40.344 28 37 28C29.268 28 23 34.268 23 42C23 45.8299 24.5379 49.3007 27.0299 51.8283ZM29.0833 52.3122C31.2756 53.9978 34.0208 55 37 55C44.1797 55 50 49.1797 50 42C50 38.5697 48.6714 35.4497 46.5007 33.1265C45.7051 33.7392 44.9224 34.3679 44.1533 35.0121C45.9146 36.8148 47 39.2807 47 42C47 47.5228 42.5228 52 37 52C34.6276 52 32.4481 51.1738 30.7336 49.7935C30.1667 50.621 29.6165 51.4607 29.0833 52.3122ZM45.0041 31.7556C44.1872 32.3907 43.3838 33.0424 42.5944 33.7101C40.9977 32.6305 39.0725 32 37 32C31.4772 32 27 36.4772 27 42C27 44.4187 27.8587 46.6369 29.2879 48.3662C28.6996 49.2161 28.1285 50.0788 27.5749 50.9537C25.3595 48.6224 24 45.4699 24 42C24 34.8203 29.8203 29 37 29C40.0189 29 42.7975 30.0291 45.0041 31.7556Z" fill="#00FF73"/>
</g>
<defs>
<filter id="filter0_dddddd_232_862" x="0.88" y="0.88" width="180.24" height="180.24" filterUnits="userSpaceOnUse" color-interpolation-filters="sRGB">
<feFlood flood-opacity="0" result="BackgroundImageFix"/>
<feColorMatrix in="SourceAlpha" type="matrix" values="0 0 0 0 0 0 0 0 0 0 0 0 0 0 0 0 0 0 127 0" result="hardAlpha"/>
<feOffset/>
<feGaussianBlur stdDeviation="0.18"/>
<feColorMatrix type="matrix" values="0 0 0 0 0 0 0 0 0 1 0 0 0 0 0.45098 0 0 0 1 0"/>
<feBlend mode="normal" in2="BackgroundImageFix" result="effect1_dropShadow_232_862"/>
<feColorMatrix in="SourceAlpha" type="matrix" values="0 0 0 0 0 0 0 0 0 0 0 0 0 0 0 0 0 0 127 0" result="hardAlpha"/>
<feOffset/>
<feGaussianBlur stdDeviation="0.36"/>
<feColorMatrix type="matrix" values="0 0 0 0 0 0 0 0 0 1 0 0 0 0 0.45098 0 0 0 1 0"/>
<feBlend mode="normal" in2="effect1_dropShadow_232_862" result="effect2_dropShadow_232_862"/>
<feColorMatrix in="SourceAlpha" type="matrix" values="0 0 0 0 0 0 0 0 0 0 0 0 0 0 0 0 0 0 127 0" result="hardAlpha"/>
<feOffset/>
<feGaussianBlur stdDeviation="1.26"/>
<feColorMatrix type="matrix" values="0 0 0 0 0 0 0 0 0 1 0 0 0 0 0.45098 0 0 0 1 0"/>
<feBlend mode="normal" in2="effect2_dropShadow_232_862" result="effect3_dropShadow_232_862"/>
<feColorMatrix in="SourceAlpha" type="matrix" values="0 0 0 0 0 0 0 0 0 0 0 0 0 0 0 0 0 0 127 0" result="hardAlpha"/>
<feOffset/>
<feGaussianBlur stdDeviation="2.52"/>
<feColorMatrix type="matrix" values="0 0 0 0 0 0 0 0 0 1 0 0 0 0 0.45098 0 0 0 1 0"/>
<feBlend mode="normal" in2="effect3_dropShadow_232_862" result="effect4_dropShadow_232_862"/>
<feColorMatrix in="SourceAlpha" type="matrix" values="0 0 0 0 0 0 0 0 0 0 0 0 0 0 0 0 0 0 127 0" result="hardAlpha"/>
<feOffset/>
<feGaussianBlur stdDeviation="4.32"/>
<feColorMatrix type="matrix" values="0 0 0 0 0 0 0 0 0 1 0 0 0 0 0.45098 0 0 0 1 0"/>
<feBlend mode="normal" in2="effect4_dropShadow_232_862" result="effect5_dropShadow_232_862"/>
<feColorMatrix in="SourceAlpha" type="matrix" values="0 0 0 0 0 0 0 0 0 0 0 0 0 0 0 0 0 0 127 0" result="hardAlpha"/>
<feOffset/>
<feGaussianBlur stdDeviation="7.56"/>
<feColorMatrix type="matrix" values="0 0 0 0 0 0 0 0 0 1 0 0 0 0 0.45098 0 0 0 1 0"/>
<feBlend mode="normal" in2="effect5_dropShadow_232_862" result="effect6_dropShadow_232_862"/>
<feBlend mode="normal" in="SourceGraphic" in2="effect6_dropShadow_232_862" result="shape"/>
</filter>
</defs>
</svg>
