<svg width="54" height="54" viewBox="0 0 54 54" fill="none" xmlns="http://www.w3.org/2000/svg">
<path d="M27 28.2656C27.2238 28.2656 27.4384 28.1767 27.5966 28.0185C27.7549 27.8603 27.8438 27.6457 27.8438 27.4219V24.0469C27.8438 23.8231 27.7549 23.6085 27.5966 23.4503C27.4384 23.292 27.2238 23.2031 27 23.2031C26.7762 23.2031 26.5616 23.292 26.4034 23.4503C26.2451 23.6085 26.1562 23.8231 26.1562 24.0469V27.4219C26.1562 27.6457 26.2451 27.8603 26.4034 28.0185C26.5616 28.1767 26.7762 28.2656 27 28.2656Z" fill="#353736"/>
<path d="M36.7031 26.1562C37.8681 26.1562 38.8125 25.5896 38.8125 24.8906C38.8125 24.1916 37.8681 23.625 36.7031 23.625C35.5381 23.625 34.5938 24.1916 34.5938 24.8906C34.5938 25.5896 35.5381 26.1562 36.7031 26.1562Z" fill="#353736"/>
<path d="M46.3631 27.5772C46.3631 27.5772 43.858 20.0678 43.8529 20.0568C43.9142 19.6576 44.0384 19.2706 44.2208 18.9102C44.3973 18.533 44.5345 18.1385 44.63 17.7332V17.7188H44.7186C44.9424 17.7188 45.157 17.6299 45.3152 17.4717C45.4735 17.3134 45.5624 17.0988 45.5624 16.8751C45.5587 13.0092 44.0799 9.29042 41.4278 6.47774C38.7757 3.66505 35.1502 1.97048 31.2912 1.73986L30.4246 1.68755C30.4154 1.68755 30.4078 1.68755 30.3985 1.68755C30.3906 1.68716 30.3827 1.68716 30.3749 1.68755H23.6249C15.1663 1.68755 11.5415 10.0407 10.9754 17.8108L7.60037 44.6133C7.58541 44.7321 7.59588 44.8527 7.6311 44.9671C7.66632 45.0815 7.72548 45.1871 7.80464 45.2769C7.88381 45.3666 7.98117 45.4385 8.09026 45.4878C8.19935 45.5371 8.31767 45.5625 8.43737 45.5626H10.74C9.78191 47.3839 9.28123 49.4109 9.28112 51.4688C9.28112 51.6926 9.37001 51.9072 9.52825 52.0654C9.68648 52.2237 9.90109 52.3126 10.1249 52.3126H35.4888C35.6506 52.3126 35.809 52.2662 35.9451 52.1787C36.0813 52.0913 36.1894 51.9666 36.2566 51.8194C36.3238 51.6722 36.3473 51.5088 36.3243 51.3487C36.3013 51.1886 36.2327 51.0384 36.1267 50.9162L31.3055 45.3474L33.0462 38.8505C34.2143 39.2493 35.4283 39.4983 36.6591 39.5913C36.8621 39.595 37.0646 39.5721 37.2616 39.523C38.674 39.1366 40.6509 36.5699 43.5897 32.2575C44.0191 31.6272 44.355 31.1327 44.544 30.8906C44.6417 30.7649 44.7018 30.6142 44.7175 30.4558C44.7332 30.2974 44.7037 30.1378 44.6325 29.9954L44.2233 29.1778L45.8315 28.642C45.9367 28.607 46.0339 28.5516 46.1177 28.4791C46.2015 28.4065 46.2701 28.3181 46.3197 28.219C46.3693 28.1199 46.3989 28.0119 46.4068 27.9014C46.4146 27.7908 46.4007 27.6798 46.3656 27.5747L46.3631 27.5772ZM37.9686 13.5001C37.9686 13.2763 38.0575 13.0617 38.2157 12.9034C38.374 12.7452 38.5886 12.6563 38.8124 12.6563C39.0361 12.6563 39.2508 12.7452 39.409 12.9034C39.5672 13.0617 39.6561 13.2763 39.6561 13.5001V16.0313H37.9686V13.5001ZM34.5936 10.9688C34.5936 10.745 34.6825 10.5304 34.8407 10.3722C34.999 10.2139 35.2136 10.1251 35.4374 10.1251C35.6611 10.1251 35.8758 10.2139 36.034 10.3722C36.1922 10.5304 36.2811 10.745 36.2811 10.9688V16.0313H34.5936V10.9688ZM24.4686 3.37505H29.5311V10.1251H24.4686V3.37505ZM27.8436 11.8126V16.8751H26.1561V11.8126H27.8436ZM14.3436 43.8751H12.6561V37.9688C12.6561 37.745 12.745 37.5304 12.9032 37.3722C13.0615 37.214 13.2761 37.1251 13.4999 37.1251C13.7236 37.1251 13.9383 37.214 14.0965 37.3722C14.2547 37.5304 14.3436 37.745 14.3436 37.9688V43.8751ZM17.7186 43.8751H16.0311V41.3438C16.0311 41.12 16.12 40.9054 16.2782 40.7472C16.4365 40.589 16.6511 40.5001 16.8749 40.5001C17.0986 40.5001 17.3133 40.589 17.4715 40.7472C17.6297 40.9054 17.7186 41.12 17.7186 41.3438V43.8751ZM21.0936 43.8751H19.4061V37.9688C19.4061 37.745 19.495 37.5304 19.6532 37.3722C19.8115 37.214 20.0261 37.1251 20.2499 37.1251C20.4736 37.1251 20.6883 37.214 20.8465 37.3722C21.0047 37.5304 21.0936 37.745 21.0936 37.9688V43.8751ZM21.9374 31.2188V20.2501C21.9374 19.8025 22.1152 19.3733 22.4316 19.0568C22.7481 18.7403 23.1773 18.5626 23.6249 18.5626H30.3749C30.8224 18.5626 31.2516 18.7403 31.5681 19.0568C31.8846 19.3733 32.0624 19.8025 32.0624 20.2501V31.2188C32.0624 31.6664 31.8846 32.0956 31.5681 32.4121C31.2516 32.7285 30.8224 32.9063 30.3749 32.9063H23.6249C23.1773 32.9063 22.7481 32.7285 22.4316 32.4121C22.1152 32.0956 21.9374 31.6664 21.9374 31.2188ZM42.7645 27.8868C42.6493 27.9249 42.5436 27.9874 42.4548 28.07C42.3659 28.1526 42.2959 28.2534 42.2495 28.3655C42.2032 28.4776 42.1815 28.5984 42.1861 28.7197C42.1906 28.8409 42.2213 28.9598 42.276 29.0681L42.891 30.2974C42.7012 30.5674 42.4641 30.9151 42.1924 31.3099C41.1327 32.8658 37.9062 37.5993 36.816 37.8979C35.9537 38.1224 31.4 36.58 29.6872 36.0003C29.0055 35.7708 28.4418 35.5785 28.0841 35.473C27.8697 35.4086 27.6385 35.4319 27.4413 35.5379C27.2442 35.6439 27.0972 35.8239 27.0328 36.0383C26.9683 36.2527 26.9917 36.4839 27.0977 36.681C27.2037 36.8782 27.3837 37.0252 27.5981 37.0896C27.7348 37.1301 27.9111 37.1875 28.1043 37.2516L29.9311 43.9476L29.5564 45.344C29.5207 45.4773 29.5181 45.6172 29.549 45.7517C29.5799 45.8861 29.6433 46.011 29.7336 46.1152L33.1002 50.0032C29.3806 48.9618 25.802 47.4706 22.4436 45.5626H23.6249C23.8486 45.5626 24.0633 45.4737 24.2215 45.3154C24.3797 45.1572 24.4686 44.9426 24.4686 44.7188V34.5938H30.3749C31.27 34.5938 32.1284 34.2382 32.7613 33.6053C33.3943 32.9724 33.7499 32.1139 33.7499 31.2188V20.2501C33.7489 19.7684 33.6434 19.2926 33.4408 18.8556C33.2382 18.4186 32.9432 18.0308 32.5762 17.7188H42.8784C42.8185 17.8876 42.7459 18.0656 42.6666 18.2521C42.2889 18.9206 42.1301 19.6908 42.2127 20.4542C42.2203 20.4863 42.2211 20.488 44.4908 27.3106L42.7645 27.8868Z" fill="#353736"/>
<path d="M26.1562 31.2188H27.8438C28.5151 31.2188 29.1589 30.9521 29.6336 30.4774C30.1083 30.0027 30.375 29.3588 30.375 28.6875V22.7812C30.375 22.1099 30.1083 21.4661 29.6336 20.9914C29.1589 20.5167 28.5151 20.25 27.8438 20.25H26.1562C25.4849 20.25 24.8411 20.5167 24.3664 20.9914C23.8917 21.4661 23.625 22.1099 23.625 22.7812V28.6875C23.625 29.3588 23.8917 30.0027 24.3664 30.4774C24.8411 30.9521 25.4849 31.2188 26.1562 31.2188ZM25.3125 22.7812C25.3125 22.5575 25.4014 22.3429 25.5596 22.1846C25.7179 22.0264 25.9325 21.9375 26.1562 21.9375H27.8438C28.0675 21.9375 28.2821 22.0264 28.4404 22.1846C28.5986 22.3429 28.6875 22.5575 28.6875 22.7812V28.6875C28.6875 28.9113 28.5986 29.1259 28.4404 29.2841C28.2821 29.4424 28.0675 29.5312 27.8438 29.5312H26.1562C25.9325 29.5312 25.7179 29.4424 25.5596 29.2841C25.4014 29.1259 25.3125 28.9113 25.3125 28.6875V22.7812Z" fill="#353736"/>
<path d="M39.5407 32.9637L38.8969 32.7105C38.4607 32.5411 38.0835 32.2479 37.8119 31.8668C37.6819 31.6846 37.4848 31.5616 37.2641 31.5247C37.0433 31.4878 36.817 31.5402 36.6348 31.6702C36.4527 31.8002 36.3297 31.9973 36.2928 32.218C36.2559 32.4387 36.3082 32.6651 36.4383 32.8472C36.9009 33.4952 37.5429 33.9937 38.2852 34.2816L38.9298 34.5347C39.0267 34.5735 39.1301 34.5935 39.2344 34.5938C39.4312 34.5937 39.6217 34.5248 39.7731 34.3991C39.9245 34.2735 40.0271 34.0988 40.0634 33.9054C40.0996 33.712 40.0671 33.5121 39.9715 33.3401C39.8759 33.1681 39.7233 33.035 39.5399 32.9637H39.5407Z" fill="#353736"/>
<path d="M40.8772 19.4948C40.2436 19.1761 39.5531 18.9861 38.8456 18.9359C38.1382 18.8856 37.4277 18.9761 36.7555 19.202L36.0146 19.4492C35.8021 19.52 35.6263 19.6722 35.5259 19.8725C35.4256 20.0729 35.409 20.3048 35.4797 20.5174C35.5504 20.73 35.7027 20.9058 35.903 21.0061C36.1033 21.1064 36.3353 21.1231 36.5479 21.0524L37.2895 20.8051C37.7517 20.6496 38.2401 20.5873 38.7264 20.6219C39.2128 20.6565 39.6874 20.7873 40.1229 21.0068C40.3231 21.1068 40.555 21.1232 40.7673 21.0523C40.8725 21.0172 40.9697 20.9617 41.0534 20.8891C41.1371 20.8164 41.2056 20.728 41.2552 20.6288C41.3047 20.5296 41.3342 20.4217 41.342 20.3111C41.3498 20.2005 41.3358 20.0895 41.3007 19.9844C41.2656 19.8792 41.2101 19.782 41.1375 19.6983C41.0648 19.6146 40.9763 19.546 40.8772 19.4965V19.4948Z" fill="#353736"/>
<path d="M39.6562 21.0938C39.4325 21.0938 39.2179 21.1826 39.0596 21.3409C38.9014 21.4991 38.8125 21.7137 38.8125 21.9375V22.7812C38.8125 23.005 38.9014 23.2196 39.0596 23.3779C39.2179 23.5361 39.4325 23.625 39.6562 23.625C39.88 23.625 40.0946 23.5361 40.2529 23.3779C40.4111 23.2196 40.5 23.005 40.5 22.7812V21.9375C40.5 21.7137 40.4111 21.4991 40.2529 21.3409C40.0946 21.1826 39.88 21.0938 39.6562 21.0938Z" fill="#353736"/>
</svg>
