<svg width="47" height="51" viewBox="0 0 47 51" fill="none" xmlns="http://www.w3.org/2000/svg">
<path d="M33.1403 39.6022L31.4661 37.9281L29.6353 39.759L32.2248 42.3485C32.345 42.4688 32.4877 42.5642 32.6448 42.6293C32.8019 42.6943 32.9702 42.7278 33.1403 42.7278C33.3103 42.7278 33.4786 42.6943 33.6357 42.6293C33.7928 42.5642 33.9355 42.4688 34.0557 42.3485L40.5296 35.8746L38.6987 34.0438L33.1403 39.6022Z" fill="#353736"/>
<path d="M40.1867 28.2561C41.2609 25.4575 41.9852 22.5369 42.3431 19.5607L43.1068 13.0995C43.1401 12.8162 43.0789 12.5299 42.9328 12.2849C42.7868 12.0399 42.5639 11.85 42.2988 11.7446L34.1824 8.52034C31.1253 7.31802 28.3051 5.58408 25.8524 3.39877L22.422 0.329992C22.185 0.11782 21.8781 0.000349454 21.56 7.78427e-07C21.2419 -0.000347897 20.9348 0.11645 20.6973 0.328102L17.2492 3.3994C14.7966 5.58417 11.9769 7.31786 8.92041 8.52034L0.81541 11.7446C0.550895 11.8499 0.328479 12.0394 0.182641 12.2839C0.0368032 12.5284 -0.0243138 12.8142 0.00876356 13.0969L0.759825 19.5607C2.17094 31.4919 9.35795 42.139 20.4837 48.7747L20.8984 49.0207C21.1012 49.1407 21.333 49.2032 21.5687 49.2014C21.8044 49.1997 22.0352 49.1337 22.2362 49.0105L22.6231 48.7728C23.9114 47.9982 25.1586 47.157 26.3596 46.2528C27.473 47.606 28.8775 48.6905 30.4683 49.4255C32.0592 50.1605 33.7954 50.527 35.5476 50.4978C37.2998 50.4685 39.0228 50.0443 40.5882 49.2566C42.1536 48.4689 43.5211 47.3381 44.5888 45.9485C45.6565 44.5589 46.3968 42.9462 46.7546 41.2307C47.1125 39.5152 47.0785 37.741 46.6554 36.0405C46.2323 34.3399 45.4309 32.7567 44.3108 31.4089C43.1908 30.0611 41.7811 28.9834 40.1867 28.2561L40.1867 28.2561ZM21.5508 46.3951C11.271 40.1671 4.63651 30.2919 3.33163 19.2598L2.69558 13.7842L9.8788 10.9266C13.2171 9.61193 16.2966 7.71729 18.9751 5.33018L21.5571 3.03018L24.1239 5.32766C26.8038 7.71607 29.8851 9.61159 33.2253 10.9266L40.4186 13.7836L39.7712 19.2586C39.4341 22.0591 38.7479 24.8066 37.7287 27.4368C36.9454 27.2731 36.1472 27.1905 35.347 27.1903C35.2703 27.1903 35.196 27.2003 35.1196 27.2018C35.8599 25.2319 36.3596 23.1798 36.6076 21.09L37.1513 16.5324C37.1853 16.2488 37.1245 15.9619 36.9784 15.7165C36.8322 15.4711 36.6089 15.2809 36.3434 15.1757L30.6104 12.8984C28.4953 12.0648 26.5433 10.8658 24.8434 9.35612L22.4233 7.18131C22.1865 6.96778 21.8791 6.84933 21.5602 6.84875C21.2414 6.84817 20.9336 6.96549 20.696 7.17815L18.2582 9.35612C16.5593 10.8655 14.608 12.0641 12.4937 12.8972L6.77087 15.1757C6.50633 15.281 6.28391 15.4707 6.13808 15.7153C5.99225 15.9599 5.93114 16.2458 5.96423 16.5286L6.49528 21.0881C7.07352 25.419 8.64567 29.5574 11.0888 33.1797C13.5319 36.8021 16.7798 39.8102 20.5786 41.969L20.8643 42.1504C21.0723 42.2824 21.3136 42.3523 21.56 42.3521C21.8063 42.3519 22.0474 42.2815 22.2552 42.1491L22.5018 41.9905C22.9741 41.7111 23.4468 41.4112 23.917 41.0949C24.1233 42.132 24.4712 43.1357 24.9507 44.0781C23.8575 44.9076 22.7227 45.6809 21.5508 46.3951V46.3951ZM23.7315 38.1029L23.7054 38.0682C23.0062 38.5942 22.293 39.0822 21.5584 39.5355C18.19 37.5631 15.3148 34.85 13.1506 31.6015C10.9864 28.3531 9.58994 24.6547 9.06708 20.7866L8.65108 17.2146L13.4547 15.3021C15.8507 14.3571 18.0614 12.9973 19.9855 11.285L21.5559 9.88277L23.1137 11.2825C25.0398 12.9962 27.2526 14.3573 29.6508 15.3034L34.4619 17.2146L34.0358 20.7859C33.7483 23.1574 33.1055 25.4721 32.1291 27.6523C29.8244 28.3189 27.7814 29.6801 26.2786 31.5503C24.7758 33.4205 23.8864 35.7087 23.7315 38.1029V38.1029ZM35.347 47.9067C33.5544 47.9067 31.8021 47.3751 30.3116 46.3792C28.8211 45.3833 27.6594 43.9678 26.9735 42.3117C26.2875 40.6556 26.108 38.8332 26.4577 37.0751C26.8074 35.3169 27.6706 33.702 28.9382 32.4344C30.2057 31.1669 31.8207 30.3037 33.5788 29.954C35.3369 29.6043 37.1593 29.7837 38.8154 30.4697C40.4715 31.1557 41.887 32.3174 42.8829 33.8079C43.8788 35.2984 44.4104 37.0507 44.4104 38.8433C44.4076 41.2462 43.4518 43.5499 41.7527 45.249C40.0536 46.9481 37.7499 47.9039 35.347 47.9067V47.9067Z" fill="#353736"/>
</svg>
