<svg width="53" height="53" viewBox="0 0 53 53" fill="none" xmlns="http://www.w3.org/2000/svg">
<path d="M50.189 8.36139C50.1247 8.34808 50.0586 8.34574 49.9936 8.35445C48.1777 8.16982 46.3859 7.79802 44.6465 7.24497C44.5514 7.21599 42.2834 6.54024 39.3809 6.93598C36.7206 7.29901 33.0232 8.66883 30.4218 13.1055C29.9128 13.335 29.4215 13.6018 28.9518 13.9037C27.9344 14.5547 27.0296 15.3667 26.2729 16.3081C24.9712 14.8312 21.1216 11.4915 13.5005 12.4088C13.3582 12.4261 13.2273 12.4948 13.1322 12.602C13.0371 12.7092 12.9845 12.8474 12.9843 12.9907C12.9841 13.134 13.0363 13.2724 13.131 13.3798C13.2258 13.4873 13.3565 13.5564 13.4987 13.5741C13.5379 13.579 16.6491 13.9844 19.5681 15.5897C18.3404 15.5859 17.1175 15.7439 15.931 16.0597C14.3008 16.512 12.6477 16.5799 11.1504 16.2558C8.45419 15.6723 6.49878 14.0643 5.33847 11.4774C5.10568 10.9573 4.82282 10.4611 4.49388 9.99579C4.41397 9.88296 4.33461 9.77644 4.2558 9.67624C4.3972 9.6544 4.55113 9.62997 4.71893 9.60233C6.06525 9.38085 7.39412 9.06392 8.69548 8.65392C8.75594 8.6356 14.8029 6.87821 19.3552 11.1653C19.4111 11.2191 19.4772 11.2613 19.5495 11.2895C19.6219 11.3176 19.6991 11.3311 19.7767 11.3292C19.8543 11.3273 19.9307 11.31 20.0016 11.2784C20.0725 11.2468 20.1363 11.2014 20.1896 11.1449C20.2428 11.0884 20.2843 11.0219 20.3116 10.9492C20.3389 10.8766 20.3516 10.7992 20.3488 10.7216C20.3461 10.6441 20.328 10.5678 20.2955 10.4973C20.2631 10.4268 20.217 10.3634 20.1599 10.3108C15.1018 5.54783 8.62716 7.44755 8.34674 7.53305C6.60961 8.08517 4.82009 8.45634 3.00668 8.64067C2.8829 8.62185 2.75633 8.64269 2.64513 8.70022C2.53393 8.75775 2.4438 8.84902 2.38765 8.96092C2.33151 9.07283 2.31224 9.19964 2.3326 9.32318C2.35296 9.44671 2.41191 9.56063 2.501 9.6486C2.56139 9.71845 2.64168 9.76819 2.73112 9.79114C2.89457 9.90635 3.16588 10.1534 3.53605 10.6749C3.82088 11.078 4.06581 11.5079 4.26739 11.9584C5.57024 14.863 7.86456 16.7457 10.9027 17.4034C11.6194 17.5565 12.3504 17.6329 13.0832 17.6311C14.1524 17.6276 15.2161 17.4796 16.2456 17.191C18.1443 16.6645 20.1052 16.7148 21.4701 16.8625C21.5611 16.937 21.6515 17.0124 21.7401 17.0902C22.5197 17.7841 23.1423 18.6364 23.5662 19.5901C23.9901 20.5439 24.2056 21.5771 24.1983 22.6208V30.1572C24.1983 30.1759 24.1528 32.0515 23.6824 33.1985C23.6807 33.2025 23.6803 33.2068 23.6788 33.2108C23.6672 33.2406 23.6581 33.2713 23.6515 33.3026C23.6497 33.3113 23.6485 33.3199 23.6472 33.3286C23.6425 33.357 23.64 33.3857 23.6396 33.4144C23.6396 33.426 23.6402 33.4373 23.6408 33.4488C23.6416 33.4658 23.6401 33.4824 23.6425 33.4996C23.6439 33.51 23.6476 33.5185 23.6494 33.5283C23.6515 33.5399 23.6547 33.551 23.6575 33.5624C23.6637 33.5884 23.6717 33.6141 23.6813 33.6391C23.6852 33.6487 23.6901 33.6578 23.6945 33.6673C23.7055 33.6918 23.7183 33.7156 23.7326 33.7383C23.7391 33.7487 23.7468 33.7578 23.754 33.7675C23.7683 33.7876 23.7839 33.8068 23.8007 33.8249C23.811 33.8358 23.8226 33.8456 23.8339 33.8559C23.8504 33.871 23.8677 33.8851 23.8857 33.8983C23.8991 33.9079 23.9136 33.9161 23.928 33.9246C23.9466 33.9359 23.9658 33.9463 23.9855 33.9556C23.9917 33.9584 23.9969 33.9624 24.0033 33.965C24.0145 33.9696 24.0259 33.9713 24.0372 33.9754C24.055 33.9814 24.0726 33.9872 24.0911 33.9915C24.1126 33.9964 24.1344 34.0001 24.1564 34.0025C24.1709 34.0043 24.1852 34.0061 24.1999 34.0067C24.2084 34.0067 24.2171 34.0092 24.2257 34.0092C24.2569 34.0091 24.2881 34.0064 24.3189 34.0013C25.6397 33.8512 26.9733 33.852 28.2939 34.0037C28.2993 34.0045 28.3042 34.0051 28.3101 34.0056C28.3351 34.0081 30.8319 34.261 32.555 34.9318C35.5422 36.0915 38.128 38.0943 39.9978 40.6967C40.0515 40.7711 40.105 40.8464 40.1581 40.9227C41.3861 42.5632 42.918 43.9523 44.6704 45.0145H21.7057C21.5501 45.0145 21.4008 45.0763 21.2907 45.1864C21.1806 45.2965 21.1188 45.4458 21.1188 45.6014C21.1188 45.7571 21.1806 45.9064 21.2907 46.0164C21.4008 46.1265 21.5501 46.1884 21.7057 46.1884H49.101C49.2566 46.1884 49.4059 46.1265 49.516 46.0164C49.6261 45.9064 49.6879 45.7571 49.6879 45.6014C49.6879 45.4458 49.6261 45.2965 49.516 45.1864C49.4059 45.0763 49.2566 45.0145 49.101 45.0145H47.418C43.5681 43.6804 41.1432 40.2832 41.1196 40.2497C41.0633 40.1693 41.0069 40.09 40.9503 40.0116C38.9484 37.2243 36.1793 35.079 32.9803 33.8369C31.143 33.1217 28.6281 32.8571 28.4335 32.8374C27.3099 32.7044 26.1763 32.6766 25.0475 32.7546C25.2371 31.9053 25.3457 31.0398 25.3718 30.1699V22.62C25.3791 21.4093 25.1279 20.2109 24.635 19.105C24.1422 17.9991 23.419 17.0111 22.5138 16.207C22.3754 16.0856 22.2343 15.969 22.0911 15.8551C22.0883 15.8526 22.0852 15.8505 22.0824 15.848C20.7702 14.8017 19.2921 14.0601 17.943 13.5414C20.2203 13.8105 21.9008 14.5175 23.0393 15.1897C24.9481 16.3166 25.7951 17.5926 25.8024 17.6036C25.8567 17.6878 25.9316 17.7567 26.0201 17.8038C26.1086 17.8509 26.2077 17.8745 26.3079 17.8724C26.4081 17.8703 26.5061 17.8426 26.5926 17.792C26.679 17.7413 26.7511 17.6693 26.8018 17.5829C26.8317 17.5321 29.4557 13.2088 35.6214 13.1958C33.9005 13.7582 31.8057 14.6919 30.0785 16.2066C29.1733 17.0107 28.4501 17.9987 27.9572 19.1046C27.4643 20.2105 27.2131 21.4089 27.2204 22.6196V30.1817C27.2204 30.1817 27.2225 30.29 27.2325 30.4734C27.2407 30.6233 27.3059 30.7643 27.4148 30.8675C27.5238 30.9708 27.6681 31.0284 27.8181 31.0285C27.8285 31.0285 27.8398 31.0285 27.8506 31.0276C28.0061 31.0191 28.1518 30.9492 28.2557 30.8333C28.3596 30.7174 28.4132 30.565 28.4048 30.4096C28.3966 30.2608 28.3944 30.1688 28.3944 30.1688V22.62C28.3871 21.5764 28.6026 20.5431 29.0265 19.5894C29.4504 18.6357 30.073 17.7834 30.8527 17.0895C34.1265 14.2183 39.0439 13.5797 39.0925 13.5736C39.2301 13.5568 39.3574 13.4919 39.4516 13.3903C39.5459 13.2887 39.6012 13.157 39.6077 13.0185C39.6142 12.88 39.5714 12.7437 39.487 12.6338C39.4026 12.5238 39.282 12.4473 39.1466 12.4177C36.3633 11.8085 34.072 11.9691 32.2524 12.4545C34.0769 9.98586 36.5069 8.52473 39.4961 8.10529C41.0984 7.88074 42.7292 7.96911 44.2979 8.36553C45.6016 8.77656 46.9329 9.09433 48.2817 9.31642C48.4495 9.34406 48.6035 9.36818 48.7449 9.39033C48.666 9.49053 48.5866 9.59702 48.5068 9.70978C48.1779 10.1752 47.895 10.6714 47.6622 11.1916C46.5019 13.7784 44.5464 15.3858 41.8501 15.9694C40.3523 16.2934 38.6993 16.2256 37.0694 15.7733C36.9194 15.7317 36.759 15.7514 36.6235 15.828C36.488 15.9047 36.3886 16.032 36.3469 16.182C36.3053 16.332 36.325 16.4924 36.4017 16.6279C36.4783 16.7634 36.6057 16.8629 36.7557 16.9045C37.7851 17.1931 38.8489 17.3412 39.9181 17.3446C40.6509 17.3464 41.3818 17.27 42.0984 17.1168C45.1362 16.4595 47.4305 14.5768 48.7332 11.6719C48.9348 11.2214 49.1798 10.7915 49.4646 10.3883C49.8344 9.8664 50.1064 9.61982 50.2696 9.50461C50.359 9.48162 50.4393 9.43185 50.4996 9.36197C50.5758 9.2874 50.6304 9.1935 50.6574 9.09031C50.6843 8.98712 50.6828 8.87853 50.6528 8.77617C50.6211 8.67105 50.5611 8.57671 50.4793 8.50352C50.3974 8.43034 50.297 8.38115 50.189 8.36139Z" fill="#353736"/>
<path d="M18.7746 46.0149C18.829 45.9605 18.8722 45.8958 18.9017 45.8247C18.9311 45.7536 18.9463 45.6774 18.9463 45.6004C18.9463 45.5234 18.9311 45.4472 18.9017 45.376C18.8722 45.3049 18.829 45.2403 18.7746 45.1858C18.7477 45.1586 18.7182 45.1341 18.6866 45.1125C18.6541 45.0912 18.6197 45.0731 18.5838 45.0582C18.5486 45.0441 18.5123 45.0328 18.4753 45.0245C18.3806 45.0062 18.2828 45.0114 18.1904 45.0395C18.0981 45.0677 18.0141 45.1179 17.9455 45.1858C17.9179 45.2124 17.8933 45.2419 17.8721 45.2738C17.8504 45.306 17.8322 45.3404 17.8179 45.3765C17.8031 45.4116 17.7918 45.448 17.7841 45.4852C17.7766 45.5234 17.7727 45.5622 17.7725 45.6011C17.7723 45.7173 17.8066 45.831 17.8711 45.9276C17.9356 46.0242 18.0274 46.0995 18.1348 46.1439C18.2422 46.1883 18.3604 46.1997 18.4743 46.1768C18.5882 46.1539 18.6927 46.0977 18.7746 46.0152V46.0149Z" fill="#353736"/>
<path d="M21.4987 34.0272C21.4469 33.8804 21.3388 33.7603 21.1984 33.6931C21.0579 33.626 20.8966 33.6174 20.7498 33.6692C17.4948 34.8236 14.6549 36.9168 12.5891 39.6845C12.45 39.8699 12.3125 40.0598 12.1807 40.2482C12.1567 40.2826 9.74454 43.6753 5.88195 45.0135H4.21535C4.05969 45.0135 3.9104 45.0753 3.80033 45.1854C3.69026 45.2955 3.62842 45.4448 3.62842 45.6004C3.62842 45.7561 3.69026 45.9054 3.80033 46.0155C3.9104 46.1255 4.05969 46.1874 4.21535 46.1874H15.0143C15.17 46.1874 15.3193 46.1255 15.4293 46.0155C15.5394 45.9054 15.6012 45.7561 15.6012 45.6004C15.6012 45.4448 15.5394 45.2955 15.4293 45.1854C15.3193 45.0753 15.17 45.0135 15.0143 45.0135H8.62998C10.3826 43.9512 11.9145 42.5619 13.1425 40.9211C13.2668 40.743 13.3966 40.5642 13.5277 40.3895C15.4548 37.8069 18.1041 35.8535 21.1409 34.776C21.2136 34.7504 21.2805 34.7106 21.3378 34.6591C21.3951 34.6076 21.4417 34.5453 21.475 34.4757C21.5082 34.4062 21.5274 34.3308 21.5315 34.2538C21.5356 34.1769 21.5244 34.0999 21.4987 34.0272Z" fill="#353736"/>
<path d="M30.2393 38.4273C30.2782 38.427 30.3171 38.4231 30.3553 38.4155C30.3925 38.4078 30.4288 38.3965 30.4638 38.3818C30.4995 38.3675 30.5334 38.3492 30.565 38.3274C30.5973 38.3067 30.6273 38.2827 30.6545 38.2556C30.7645 38.1454 30.8263 37.996 30.8263 37.8403C30.8263 37.6846 30.7645 37.5353 30.6545 37.4251C30.627 37.3979 30.597 37.3733 30.565 37.3517C30.533 37.3309 30.4992 37.3132 30.4638 37.2988C30.3837 37.2657 30.2973 37.2507 30.2107 37.255C30.1242 37.2593 30.0396 37.2827 29.9632 37.3236C29.8867 37.3645 29.8203 37.4218 29.7687 37.4914C29.7171 37.561 29.6815 37.6412 29.6646 37.7262C29.6477 37.8113 29.6498 37.899 29.6709 37.983C29.6919 38.0671 29.7313 38.1455 29.7863 38.2125C29.8412 38.2796 29.9104 38.3336 29.9887 38.3707C30.0671 38.4078 30.1526 38.427 30.2393 38.4271V38.4273Z" fill="#353736"/>
<path d="M29.8254 41.2254C29.852 41.253 29.8815 41.2776 29.9135 41.2987C29.9456 41.3197 29.9795 41.3379 30.0148 41.353C30.0503 41.3672 30.0872 41.378 30.1248 41.3853C30.1624 41.3936 30.2008 41.3975 30.2393 41.397C30.2778 41.3976 30.3162 41.3936 30.3538 41.3853C30.3915 41.3784 30.4283 41.3675 30.4638 41.353C30.4992 41.3382 30.533 41.32 30.5649 41.2987C30.5973 41.2776 30.6274 41.253 30.6545 41.2254C30.7643 41.115 30.826 40.9657 30.8262 40.81C30.8266 40.7718 30.8227 40.7336 30.8144 40.6962C30.8073 40.6585 30.7965 40.6216 30.7822 40.586C30.767 40.5508 30.7488 40.517 30.7279 40.4848C30.7063 40.4527 30.6817 40.4227 30.6545 40.3953C30.5443 40.2853 30.3949 40.2235 30.2392 40.2235C30.0835 40.2235 29.9342 40.2853 29.824 40.3953C29.7972 40.4228 29.7731 40.4527 29.752 40.4848C29.7306 40.5166 29.7124 40.5506 29.6977 40.586C29.683 40.6216 29.6717 40.6585 29.664 40.6962C29.6566 40.7337 29.6527 40.7718 29.6523 40.81C29.6524 40.8873 29.6677 40.9637 29.6974 41.035C29.7271 41.1062 29.7706 41.1709 29.8254 41.2254Z" fill="#353736"/>
<path d="M32.7218 40.0813C32.7425 40.114 32.7671 40.1441 32.7951 40.1708C32.9051 40.2807 33.0542 40.3424 33.2097 40.3424C33.3651 40.3424 33.5142 40.2807 33.6242 40.1708C33.6517 40.1436 33.6763 40.1136 33.6976 40.0813C33.7185 40.0491 33.7366 40.0153 33.7517 39.98C33.7661 39.9444 33.7774 39.9076 33.7856 39.87C33.7927 39.8323 33.7961 39.7939 33.7959 39.7555C33.7959 39.5998 33.7341 39.4506 33.624 39.3405C33.514 39.2304 33.3647 39.1686 33.209 39.1686C33.0533 39.1686 32.9041 39.2304 32.794 39.3405C32.6839 39.4506 32.6221 39.5998 32.6221 39.7555C32.6223 39.794 32.6262 39.8323 32.6338 39.87C32.649 39.9455 32.6789 40.0173 32.7218 40.0813Z" fill="#353736"/>
</svg>
