<svg width="53" height="53" viewBox="0 0 53 53" fill="none" xmlns="http://www.w3.org/2000/svg">
<path d="M18.5732 15.8453L17.0735 14.98C17.2755 14.44 17.3907 13.8587 17.3907 13.25C17.3907 12.6413 17.2755 12.06 17.0743 11.5209L18.574 10.6555L18.9881 11.3726L20.4224 10.5445L18.7662 7.67506L17.3319 8.50319L17.7459 9.22034L16.2495 10.0841C15.505 9.18556 14.4492 8.55784 13.2509 8.35578V6.625H14.079V4.96875H10.7665V6.625H11.5946V8.35578C10.3963 8.55784 9.34045 9.18556 8.59596 10.0841L7.09954 9.22034L7.51361 8.50319L6.07929 7.67506L4.42304 10.5445L5.85736 11.3726L6.27142 10.6555L7.77115 11.5209C7.56826 12.06 7.45315 12.6413 7.45315 13.25C7.45315 13.8587 7.56826 14.44 7.7695 14.9791L6.26976 15.8445L5.8557 15.1274L4.42139 15.9555L6.07764 18.8249L7.51195 17.9968L7.09789 17.2797L8.59431 16.4159C9.33879 17.3144 10.3947 17.9422 11.5929 18.1442V19.875H10.7648V21.5312H14.0773V19.875H13.2492V18.1442C14.4475 17.9422 15.5034 17.3144 16.2478 16.4159L17.7443 17.2797L17.3302 17.9968L18.7645 18.8249L20.4208 15.9555L18.9864 15.1274L18.5732 15.8453ZM12.4219 16.5625C10.5951 16.5625 9.1094 15.0768 9.1094 13.25C9.1094 11.4232 10.5951 9.9375 12.4219 9.9375C14.2487 9.9375 15.7344 11.4232 15.7344 13.25C15.7344 15.0768 14.2487 16.5625 12.4219 16.5625Z" fill="#353736"/>
<path d="M12.4219 1.65625C6.02875 1.65625 0.828125 6.85687 0.828125 13.25C0.828125 19.6431 6.02875 24.8438 12.4219 24.8438C18.815 24.8438 24.0156 19.6431 24.0156 13.25C24.0156 6.85687 18.815 1.65625 12.4219 1.65625ZM12.4219 23.1875C6.94217 23.1875 2.48438 18.7297 2.48438 13.25C2.48438 7.7703 6.94217 3.3125 12.4219 3.3125C17.9016 3.3125 22.3594 7.7703 22.3594 13.25C22.3594 18.7297 17.9016 23.1875 12.4219 23.1875Z" fill="#353736"/>
<path d="M52.1719 30.6407C52.1719 29.2933 51.5152 28.1058 50.5156 27.3497V23.1875C50.5156 22.9673 50.4287 22.7569 50.273 22.6021L42.5772 14.9063L46.1324 11.3511C46.4562 11.0273 46.4562 10.504 46.1324 10.1802L45.8897 9.93754L48.0312 7.796L49.102 8.86677L50.273 7.6958L43.648 1.0708L42.477 2.24177L43.5478 3.31254L41.4062 5.45407L41.1636 5.21143C40.8398 4.88763 40.3164 4.88763 39.9926 5.21143L29.227 15.9771C29.0713 16.1319 28.9844 16.3423 28.9844 16.5625V23.1875H28.1562C27.6991 23.1875 27.3281 23.5577 27.3281 24.0157V32.2969C27.3281 32.7549 27.6991 33.125 28.1562 33.125H32.2969V35.6094C32.2969 36.0674 32.6679 36.4375 33.125 36.4375H36.4375C36.8946 36.4375 37.2656 36.0674 37.2656 35.6094V33.125H41.4062C41.8634 33.125 42.2344 32.7549 42.2344 32.2969V24.0157C42.2344 23.5577 41.8634 23.1875 41.4062 23.1875H40.5781V20.2179L44.7188 24.3585V28.182C44.2053 28.8718 43.8906 29.7173 43.8906 30.6407C43.8906 31.564 44.2053 32.4095 44.7188 33.0994V38.0938H26.5V39.75H44.7188V45.5469H40.5781V43.0625C40.5781 42.6046 40.2071 42.2344 39.75 42.2344H29.8125C29.3554 42.2344 28.9844 42.6046 28.9844 43.0625V45.5469H23.1875C21.8178 45.5469 20.7031 46.6616 20.7031 48.0313V50.5157C20.7031 50.9736 21.0741 51.3438 21.5312 51.3438H46.375C48.6581 51.3438 50.5156 49.4863 50.5156 47.2032V33.9316C51.5152 33.1756 52.1719 31.988 52.1719 30.6407ZM44.7188 4.4835L46.8603 6.62504L44.7188 8.76657L42.5772 6.62504L44.7188 4.4835ZM35.6094 34.7813H33.9531V33.125H35.6094V34.7813ZM40.5781 31.4688H28.9844V24.8438H40.5781V31.4688ZM30.6406 23.1875V16.9054L40.5781 6.96788L44.3759 10.7657L39.1645 15.9771C39.0088 16.1319 38.9219 16.3423 38.9219 16.5625V23.1875H30.6406ZM40.5781 17.8759V16.9054L41.4062 16.0773L48.8594 23.5304V26.5837C48.5919 26.529 48.3145 26.5 48.0312 26.5C47.4416 26.5 46.8835 26.6276 46.375 26.8512V24.0157C46.375 23.7954 46.288 23.585 46.1324 23.4302L40.5781 17.8759ZM30.6406 43.8907H38.9219V45.5469H30.6406V43.8907ZM48.8594 47.2032C48.8594 48.5729 47.7447 49.6875 46.375 49.6875H22.3594V48.0313C22.3594 47.5742 22.7312 47.2032 23.1875 47.2032H45.5469C46.004 47.2032 46.375 46.833 46.375 46.375V34.4302C46.8835 34.6538 47.4416 34.7813 48.0312 34.7813C48.3145 34.7813 48.5919 34.7523 48.8594 34.6976V47.2032ZM48.0312 33.125C46.6615 33.125 45.5469 32.0104 45.5469 30.6407C45.5469 29.2709 46.6615 28.1563 48.0312 28.1563C49.401 28.1563 50.5156 29.2709 50.5156 30.6407C50.5156 32.0104 49.401 33.125 48.0312 33.125Z" fill="#353736"/>
<path d="M12.4219 26.5H10.7656V28.1562H12.4219V26.5Z" fill="#353736"/>
<path d="M12.4219 29.8125H10.7656V31.4688H12.4219V29.8125Z" fill="#353736"/>
<path d="M12.4219 33.125H10.7656V34.7812H12.4219V33.125Z" fill="#353736"/>
<path d="M12.4219 36.4375H10.7656V38.0938H12.4219V36.4375Z" fill="#353736"/>
<path d="M12.4219 39.75H10.7656V41.4062H12.4219V39.75Z" fill="#353736"/>
<path d="M12.4219 43.0625H10.7656V44.7188H12.4219V43.0625Z" fill="#353736"/>
<path d="M12.4219 46.375H10.7656V48.0312H12.4219V46.375Z" fill="#353736"/>
<path d="M15.7344 46.375H14.0781V48.0312H15.7344V46.375Z" fill="#353736"/>
<path d="M19.0469 46.375H17.3906V48.0312H19.0469V46.375Z" fill="#353736"/>
<path d="M26.5 8.28125H24.8438V9.9375H26.5V8.28125Z" fill="#353736"/>
<path d="M29.8125 8.28125H28.1562V9.9375H29.8125V8.28125Z" fill="#353736"/>
<path d="M33.125 8.28125H31.4688V9.9375H33.125V8.28125Z" fill="#353736"/>
</svg>
