<svg width="32" height="32" viewBox="0 0 32 32" fill="none" xmlns="http://www.w3.org/2000/svg">
<path d="M6.71211 14.8227C5.45106 15.14 4.34928 15.9069 3.61378 16.9793C2.87828 18.0516 2.55969 19.3557 2.71785 20.6464C2.87602 21.9371 3.50006 23.1256 4.47273 23.9887C5.4454 24.8517 6.69975 25.3299 8.00011 25.3333H22.6668C23.6082 25.3327 24.5387 25.1327 25.3973 24.7465C26.2558 24.3603 27.0228 23.7966 27.6477 23.0926C28.2727 22.3886 28.7415 21.5603 29.0233 20.662C29.305 19.7638 29.3934 18.8161 29.2825 17.8813C29.1716 16.9464 28.8639 16.0457 28.3798 15.2383C27.8957 14.431 27.2461 13.7353 26.4738 13.197C25.7014 12.6588 24.8238 12.2903 23.8988 12.1157C22.9737 11.9411 22.0222 11.9644 21.1068 12.184L19.3334 12.6667" stroke="white" stroke-width="2.5" stroke-linecap="round" stroke-linejoin="round"/>
<path d="M21.1066 12.184C20.6508 10.3795 19.526 8.81569 17.9601 7.80971C16.3941 6.80373 14.5043 6.43082 12.6736 6.76657C10.8429 7.10232 9.20834 8.12161 8.1013 9.61782C6.99427 11.114 6.49757 12.9752 6.71189 14.824C6.71189 14.824 6.91589 16 7.33322 16.6667" stroke="white" stroke-width="2.5" stroke-linecap="round" stroke-linejoin="round"/>
</svg>
