<svg width="32" height="32" viewBox="0 0 32 32" fill="none" xmlns="http://www.w3.org/2000/svg">
<path d="M27.917 6H18.143L16.143 10H5V27H30V6H27.917ZM28 10H20.19L21.238 8H28V10Z" fill="white"/>
<path fill-rule="evenodd" clip-rule="evenodd" d="M16.0178 14.715C15.8184 14.7129 15.6197 14.7371 15.4268 14.787V14.816H15.4548C15.5927 15.0247 15.7469 15.2223 15.9158 15.407C16.0318 15.638 16.1328 15.867 16.2478 16.098L16.2758 16.069C16.3825 15.9838 16.4659 15.8731 16.5184 15.747C16.5708 15.621 16.5906 15.4837 16.5758 15.348C16.5127 15.2512 16.455 15.151 16.4028 15.048C16.3168 14.904 16.1288 14.832 16.0128 14.717" fill="white"/>
<path fill-rule="evenodd" clip-rule="evenodd" d="M30.3279 27.286C29.3768 27.2179 28.422 27.3543 27.5279 27.686C27.3119 27.772 26.9659 27.772 26.9369 28.046C27.0529 28.161 27.0669 28.346 27.1689 28.508C27.3663 28.8419 27.6196 29.1392 27.9179 29.387C28.2179 29.618 28.5229 29.847 28.8409 30.049C29.4029 30.396 30.0409 30.597 30.5839 30.943C30.9019 31.143 31.2179 31.404 31.5369 31.621C31.6949 31.736 31.7949 31.921 31.9969 31.995V31.951C31.9373 31.7909 31.8637 31.6363 31.7769 31.489C31.6329 31.346 31.4889 31.215 31.3439 31.072C30.921 30.5135 30.4151 30.0228 29.8439 29.617C29.3819 29.299 28.3729 28.867 28.1859 28.335L28.1569 28.306C28.4964 28.2582 28.8311 28.1806 29.1569 28.074C29.6459 27.945 30.0929 27.974 30.5979 27.845C30.8289 27.787 31.2469 27.645 31.2469 27.645V27.42C30.9889 27.164 30.8049 26.82 30.5339 26.579C29.7962 25.9351 29.0098 25.3491 28.1819 24.826C27.7389 24.541 27.1689 24.356 26.6989 24.113C26.5289 24.027 26.2439 23.985 26.1439 23.842C25.9094 23.4978 25.7133 23.1289 25.5589 22.742C25.1374 21.9308 24.7475 21.1035 24.3899 20.262C24.1797 19.7066 23.9369 19.164 23.6629 18.637C22.341 16.3929 20.434 14.5503 18.1459 13.306C17.5685 13.0262 16.9544 12.8292 16.3219 12.721C15.9649 12.706 15.6089 12.678 15.2529 12.664C15.0227 12.5132 14.8035 12.3461 14.5969 12.164C13.7839 11.651 11.6899 10.539 11.0909 12.007C10.7059 12.934 11.6609 13.846 11.9909 14.317C12.2669 14.6491 12.51 15.0071 12.7169 15.386C12.8169 15.628 12.8449 15.886 12.9459 16.142C13.1544 16.7933 13.4018 17.4315 13.6869 18.053C13.8398 18.3604 14.016 18.6556 14.2139 18.936C14.3289 19.094 14.5279 19.164 14.5709 19.422C14.4131 19.7617 14.3028 20.1214 14.2429 20.491C13.9939 21.2773 13.9022 22.105 13.9733 22.9267C14.0443 23.7485 14.2766 24.5482 14.6569 25.28C14.8849 25.636 15.4269 26.421 16.1569 26.121C16.7979 25.865 16.6569 25.052 16.8409 24.34C16.8839 24.168 16.8549 24.055 16.9409 23.94V24.08C16.9409 24.08 17.3049 24.88 17.4849 25.289C17.9743 26.0334 18.5824 26.6924 19.2849 27.24C19.5649 27.4819 19.7909 27.78 19.9479 28.115V28.373H20.2699C20.2631 28.257 20.231 28.1438 20.1759 28.0413C20.1208 27.9389 20.044 27.8498 19.9509 27.78C19.6874 27.5084 19.4459 27.2162 19.2289 26.906C18.639 26.0664 18.1189 25.1797 17.6739 24.255C17.4509 23.802 17.2569 23.308 17.0739 22.855C16.9909 22.681 16.9909 22.418 16.8519 22.331C16.5945 22.6354 16.3712 22.967 16.1859 23.32C15.9608 24.0333 15.83 24.7729 15.7969 25.52C15.7419 25.535 15.7689 25.52 15.7419 25.549C15.2979 25.433 15.1419 24.949 14.9779 24.549C14.5462 23.2944 14.5027 21.9388 14.8529 20.659C14.9529 20.359 15.3679 19.392 15.1999 19.101C15.1159 18.823 14.8389 18.664 14.6859 18.445C14.4916 18.15 14.3243 17.8381 14.1859 17.513C13.8529 16.698 13.6859 15.794 13.3249 14.979C13.1255 14.5862 12.8934 14.2109 12.6309 13.857C12.3409 13.5034 12.0851 13.123 11.8669 12.721C11.814 12.6313 11.7815 12.531 11.7718 12.4273C11.7621 12.3236 11.7755 12.219 11.8109 12.121C11.8188 12.0718 11.8426 12.0265 11.8788 11.9922C11.9149 11.9578 11.9614 11.9364 12.0109 11.931C12.1909 11.771 12.7049 11.974 12.8849 12.062C13.3688 12.2523 13.8297 12.4966 14.2589 12.79C14.4589 12.936 14.9109 13.306 14.9109 13.306H15.0459C15.5069 13.406 16.0269 13.334 16.4589 13.464C17.1895 13.7071 17.8867 14.0411 18.5339 14.458C20.444 15.6739 21.9969 17.3753 23.0339 19.388C23.2069 19.719 23.2799 20.022 23.4339 20.367C23.7339 21.075 24.1119 21.796 24.4139 22.487C24.6796 23.1684 25.0232 23.8167 25.4379 24.419C25.6539 24.719 26.5189 24.88 26.9079 25.039C27.2479 25.1552 27.5816 25.2888 27.9079 25.439C28.3979 25.739 28.8869 26.088 29.3489 26.42C29.5789 26.593 30.2999 26.953 30.3429 27.242" fill="#262626"/>
</svg>
