<svg width="32" height="32" viewBox="0 0 32 32" fill="none" xmlns="http://www.w3.org/2000/svg">
<g clip-path="url(#clip0_137_393)">
<path d="M15.8853 0C7.76 0 8.26667 3.54133 8.26667 3.54133L8.276 7.21067H16.028V8.312H5.2C5.2 8.312 0 7.71867 0 15.9587C0 24.1987 4.53733 23.9053 4.53733 23.9053H7.244V20.0827C7.244 20.0827 7.09867 15.5227 11.7107 15.5227H19.3987C19.3987 15.5227 23.7187 15.592 23.7187 11.3253V4.26933C23.7187 4.26933 24.3733 0 15.884 0H15.8853ZM11.6107 2.46667C12.3813 2.46667 13.0053 3.09333 13.0053 3.86933C13.0053 4.644 12.3813 5.27067 11.6107 5.27067C10.8387 5.27067 10.216 4.644 10.216 3.86933C10.216 3.09333 10.8387 2.46667 11.6107 2.46667Z" fill="white"/>
<path d="M16.1156 31.9999C24.2383 31.9999 23.7316 28.4586 23.7316 28.4586L23.7223 24.7892H15.9703V23.6879H26.8009C26.8009 23.6879 32.0009 24.2812 32.0009 16.0412C32.0009 7.80122 27.4623 8.09456 27.4623 8.09456H24.7556V11.9172C24.7556 11.9172 24.9009 16.4772 20.2889 16.4772H12.6023C12.6023 16.4772 8.28226 16.4079 8.28226 20.6746V27.7306C8.28226 27.7306 7.62626 31.9999 16.1156 31.9999ZM20.3903 29.5332C19.6183 29.5332 18.9956 28.9066 18.9956 28.1306C18.9956 27.3559 19.6183 26.7292 20.3903 26.7292C21.1609 26.7292 21.7849 27.3559 21.7849 28.1306C21.7849 28.9066 21.1609 29.5332 20.3903 29.5332Z" fill="white"/>
</g>
<defs>
<clipPath id="clip0_137_393">
<rect width="32" height="32" fill="white"/>
</clipPath>
</defs>
</svg>
