<svg width="32" height="32" viewBox="0 0 32 32" fill="none" xmlns="http://www.w3.org/2000/svg">
<path d="M28 23V26.586L23 21.586V15C22.9999 14.8143 22.9481 14.6324 22.8504 14.4745C22.7528 14.3166 22.6131 14.189 22.447 14.106L17 11.381V5.828L19.586 8.414L21 7L16 2L11 7L12.414 8.414L15 5.828V11.382L9.553 14.105C9.38677 14.1881 9.24697 14.3158 9.14929 14.4739C9.05161 14.632 8.99991 14.8142 9 15V21.586L4 26.586V23H2V30H9V28H5.414L10.197 23.217L15.553 25.895C15.6918 25.9643 15.8448 26.0003 16 26.0003C16.1552 26.0003 16.3082 25.9643 16.447 25.895L21.803 23.217L26.586 28H23V30H30V23H28ZM15 23.382L11 21.382V16.618L15 18.618V23.382ZM16 16.882L12.236 15L16 13.118L19.764 15L16 16.882ZM21 21.382L17 23.382V18.618L21 16.618V21.382Z" fill="white"/>
</svg>
