<svg width="32" height="32" viewBox="0 0 32 32" fill="none" xmlns="http://www.w3.org/2000/svg">
<g clip-path="url(#clip0_137_512)">
<path d="M10.6451 21.8631C10.4951 20.8843 10.0826 20.0893 9.08139 19.7049C8.68952 19.5549 8.35014 19.2811 7.96389 19.1086C7.52514 18.9118 7.07889 18.7243 6.61577 18.6024C6.26514 18.5086 5.93889 18.6661 5.73077 18.9736C5.53389 19.2624 5.67639 19.5343 5.84139 19.7761C6.02702 20.048 6.23327 20.3068 6.44139 20.5618C6.78639 20.9855 7.15202 21.3924 7.48764 21.8218C7.80827 22.2324 8.08202 22.6881 8.03514 23.2318C7.93202 24.4243 7.39202 25.4125 6.52202 26.2168C6.42639 26.3031 6.25764 26.3649 6.13389 26.3537C5.57889 26.2937 5.07452 26.0837 4.66764 25.6956C4.20077 25.2512 4.27202 24.7281 4.83077 24.4037C4.96389 24.3268 5.10264 24.2556 5.22452 24.1618C5.56577 23.9049 5.68014 23.4662 5.49452 23.0856C5.40639 22.9018 5.30702 22.7031 5.16077 22.5699C4.44639 21.9193 3.74508 21.248 2.98008 20.6556C1.12564 19.2155 0.173204 17.3106 0.0268913 15.0043C-0.138109 12.4429 0.456266 10.0523 1.80814 7.86413C2.32002 7.0335 2.91627 6.24219 3.83127 5.83163C4.45377 5.55225 5.13627 5.39475 5.80195 5.22038C7.63389 4.7385 9.48258 4.37663 11.3895 4.69913C13.032 4.97475 14.234 5.82038 14.7852 7.43475C15.1471 8.49038 15.2333 9.58163 15.1208 10.6992C14.8996 12.8949 13.2777 14.858 11.1626 15.4393C10.2458 15.6905 9.74514 15.5499 9.19389 14.7868C8.79827 14.2374 8.47014 13.6393 8.11577 13.0598C8.06327 12.9736 8.02577 12.8742 7.98077 12.7823C7.93764 12.6904 7.89077 12.6023 7.84577 12.5104C7.97889 13.4629 8.20014 14.3799 8.71952 15.1973C9.00077 15.6417 9.37577 15.9698 9.92514 16.0186C11.9464 16.2004 13.6527 15.5367 14.864 13.911C16.2196 12.0922 16.5178 9.99969 16.1258 7.79656C16.049 7.36156 15.9196 6.93594 15.8277 6.50281C15.7658 6.22344 15.8765 6.01719 16.1521 5.91969C16.2796 5.87656 16.4108 5.84094 16.5383 5.81469C18.1921 5.45844 19.8646 5.34031 21.5503 5.51094C23.4628 5.70219 25.2722 6.22719 26.8903 7.29038C29.4235 8.95725 30.9929 11.3292 31.846 14.198C31.9698 14.6143 31.9885 15.0699 31.9998 15.5087C32.0073 15.8012 31.8198 15.8781 31.5966 15.6943C31.351 15.4937 31.126 15.2649 30.9141 15.0287C30.7173 14.8056 30.5598 14.5506 30.3685 14.3162C30.2204 14.1324 30.091 14.1606 30.0198 14.3893C29.9748 14.5281 29.9354 14.6649 29.896 14.8037C29.4535 16.3824 28.756 17.8224 27.6254 19.0356C27.4679 19.2063 27.3273 19.4594 27.3085 19.6844C27.2598 20.3069 27.2241 20.9425 27.2841 21.5631C27.4079 22.8963 27.601 24.2238 27.751 25.5551C27.8354 26.3069 27.5935 26.7494 26.8866 27.0101C26.3898 27.192 25.8573 27.3251 25.3323 27.3626C24.496 27.4207 23.6523 27.3795 22.8123 27.3795C22.7898 26.442 22.8704 25.5213 21.9891 25.0188C22.1598 24.3232 22.3566 23.6632 22.4748 22.9882C22.5723 22.4276 22.4898 21.8763 22.096 21.4169C21.7266 20.9838 21.2635 20.8657 20.8397 21.1132C19.5628 21.8576 18.2353 21.8613 16.8834 21.3738C16.2628 21.1488 15.8296 21.2763 15.4865 21.8426C15.1171 22.4519 14.9615 23.1363 15.0027 23.8283C15.0552 24.7001 15.2071 25.5626 15.3233 26.4307C15.3871 26.9164 15.3327 27.042 14.8508 27.1658C13.7802 27.4376 12.6908 27.4676 11.5958 27.3795C11.5376 27.3739 11.4795 27.3495 11.442 27.3401C11.3876 26.4308 11.4833 25.4857 10.3995 25.0019C10.8795 23.9838 10.8139 22.9282 10.6489 21.8726L10.6451 21.8632V21.8631ZM4.17258 18.2949C4.33195 18.1449 4.45945 17.9106 4.50445 17.6949C4.61695 17.1549 4.21195 16.4312 3.7432 16.2306C3.49383 16.1218 3.27633 16.1612 3.10008 16.3599C2.6707 16.8456 2.24695 17.3368 1.82502 17.83C1.75377 17.9144 1.69002 18.0138 1.63939 18.1131C1.47064 18.4375 1.57002 18.6738 1.93002 18.7619C2.14752 18.8163 2.37252 18.8275 2.59564 18.8594C3.17689 18.8031 3.73939 18.7056 4.17252 18.2969V18.295L4.17258 18.2949ZM4.22133 12.8968C4.21945 12.5105 3.89695 12.188 3.51633 12.1861C3.12445 12.1843 2.78695 12.5349 2.80008 12.9211C2.81695 13.3093 3.13945 13.6205 3.5257 13.613C3.9157 13.6074 4.22695 13.2886 4.2232 12.8986L4.22133 12.8968Z" fill="white"/>
</g>
<defs>
<clipPath id="clip0_137_512">
<rect width="32" height="32" fill="white"/>
</clipPath>
</defs>
</svg>
