<svg width="32" height="32" viewBox="0 0 32 32" fill="none" xmlns="http://www.w3.org/2000/svg">
<path d="M8.44043 23.1782C8.44043 23.9094 9.0373 24.5063 9.77168 24.5063H11.2936V28.2688C11.2936 29.2219 12.0592 30 12.9998 30C13.9436 30 14.7061 29.225 14.7061 28.2688V24.5031H17.3623V28.2656C17.3623 29.2188 18.1279 29.9969 19.0686 29.9969C20.0123 29.9969 20.7748 29.2219 20.7748 28.2656V24.5031H22.2967C23.0311 24.5031 23.6279 23.9063 23.6279 23.175V10.825H8.44043V23.1782ZM19.5998 4.42503L21.0029 2.39378C21.0842 2.27503 21.0654 2.11565 20.9561 2.03753C20.8467 1.96253 20.6904 2.00003 20.6092 2.11878L19.1529 4.23128C18.1936 3.85315 17.1248 3.64378 16.0029 3.64378C14.8811 3.64378 13.8123 3.85315 12.8529 4.23128L11.3967 2.1219C11.3154 2.00315 11.1592 1.96253 11.0498 2.04065C10.9404 2.11565 10.9217 2.2719 11.0029 2.3969L12.4061 4.42815C10.1748 5.46565 8.6123 7.43127 8.4123 9.72815H23.5998C23.3936 7.42815 21.8279 5.46253 19.5998 4.42503ZM12.7967 7.62815C12.6304 7.62815 12.4679 7.57885 12.3297 7.48648C12.1914 7.39411 12.0837 7.26282 12.02 7.10922C11.9564 6.95561 11.9398 6.78659 11.9722 6.62353C12.0046 6.46046 12.0847 6.31068 12.2023 6.19311C12.3198 6.07555 12.4696 5.99549 12.6327 5.96305C12.7957 5.93062 12.9648 5.94726 13.1184 6.01089C13.272 6.07451 13.4033 6.18226 13.4956 6.3205C13.588 6.45874 13.6373 6.62127 13.6373 6.78753C13.6367 7.0103 13.548 7.22378 13.3905 7.3813C13.2329 7.53882 13.0194 7.62757 12.7967 7.62815ZM19.3092 7.62815C19.1429 7.62815 18.9804 7.57885 18.8422 7.48648C18.7039 7.39411 18.5962 7.26282 18.5325 7.10922C18.4689 6.95561 18.4523 6.78659 18.4847 6.62353C18.5171 6.46046 18.5972 6.31068 18.7148 6.19311C18.8323 6.07555 18.9821 5.99549 19.1452 5.96305C19.3082 5.93062 19.4773 5.94726 19.6309 6.01089C19.7845 6.07451 19.9158 6.18226 20.0081 6.3205C20.1005 6.45874 20.1498 6.62127 20.1498 6.78753C20.1492 7.0103 20.0605 7.22378 19.903 7.3813C19.7454 7.53882 19.5319 7.62757 19.3092 7.62815ZM26.2904 10.775C25.3467 10.775 24.5842 11.55 24.5842 12.5063V19.2688C24.5842 20.2219 25.3498 21 26.2904 21C27.2342 21 27.9967 20.225 27.9967 19.2688V12.5032C27.9998 11.5469 27.2373 10.775 26.2904 10.775ZM5.70918 10.775C4.76543 10.775 4.00293 11.55 4.00293 12.5063V19.2688C4.00293 20.2219 4.76855 21 5.70918 21C6.65293 21 7.41543 20.225 7.41543 19.2688V12.5032C7.41543 11.5469 6.6498 10.775 5.70918 10.775Z" fill="white"/>
</svg>
