<svg width="26" height="32" viewBox="0 0 26 32" fill="none" xmlns="http://www.w3.org/2000/svg">
<path d="M8.3046 31.989C7.29656 31.5447 6.42724 30.8364 5.78848 29.9389C5.14971 29.0413 4.76521 27.988 4.6756 26.89C4.73502 25.7551 5.06241 24.6505 5.63096 23.6665C6.19951 22.6825 6.99306 21.8472 7.9466 21.229C7.78935 21.6095 7.72519 22.0221 7.75946 22.4324C7.79372 22.8426 7.92542 23.2388 8.1436 23.588C8.38795 23.931 8.72684 24.1954 9.11893 24.349C9.51101 24.5026 9.93932 24.5387 10.3516 24.453C10.7437 24.3426 11.0988 24.1285 11.3794 23.8332C11.66 23.5378 11.8558 23.1723 11.946 22.775C12.0362 22.3777 12.0175 21.9635 11.892 21.5759C11.7664 21.1884 11.5386 20.8419 11.2326 20.573C10.5622 20.0294 10.0438 19.3215 9.72786 18.5183C9.41192 17.715 9.30918 16.8437 9.4296 15.989C9.66615 15.0661 10.1765 14.2364 10.8936 13.609C10.3506 15.052 11.8726 16.468 12.8986 17.172C14.7118 18.2578 16.4576 19.4524 18.1266 20.749C19.0251 21.4572 19.7375 22.3737 20.2022 23.4191C20.6669 24.4646 20.8699 25.6075 20.7936 26.749C20.5948 27.9519 20.069 29.077 19.2738 30.0012C18.4785 30.9253 17.4444 31.613 16.2846 31.989C21.0136 30.937 25.8936 27.177 25.9876 21.844C25.9411 19.7542 25.3027 17.7204 24.1467 15.9789C22.9907 14.2373 21.3644 12.8593 19.4566 12.005H19.2846C19.3676 12.213 19.4086 12.437 19.4036 12.666C19.4146 12.5185 19.4146 12.3705 19.4036 12.223C19.4246 12.4 19.4246 12.572 19.4036 12.743C19.2608 13.3269 18.8922 13.8303 18.3788 14.1428C17.8653 14.4553 17.2488 14.5514 16.6646 14.41C16.1797 14.2907 15.7477 14.0148 15.4356 13.625C13.8726 11.625 15.4356 9.349 15.6956 7.145C15.7749 5.76376 15.5045 4.38483 14.9093 3.13588C14.3141 1.88693 13.4134 0.808351 12.2906 0C13.4306 1.901 11.9096 4.401 10.8056 5.823C9.7016 7.245 8.1026 8.302 6.7946 9.542C5.38888 10.8534 4.10125 12.2859 2.9466 13.823C1.71263 15.3306 0.832469 17.0958 0.370912 18.9886C-0.0906445 20.8814 -0.121846 22.8536 0.279603 24.76C0.825926 26.5851 1.86263 28.2253 3.27677 29.5019C4.69092 30.7786 6.42829 31.6426 8.2996 32H8.3206L8.3046 31.989Z" fill="white"/>
</svg>
