<svg width="32" height="32" viewBox="0 0 32 32" fill="none" xmlns="http://www.w3.org/2000/svg">
<path fill-rule="evenodd" clip-rule="evenodd" d="M6.64667 2.66675C4.82 2.66675 3.46933 4.26541 3.53067 5.99741C3.588 7.66408 3.51333 9.82008 2.97067 11.5787C2.424 13.3414 1.504 14.4587 0 14.6027V16.2227C1.504 16.3654 2.42533 17.4827 2.96933 19.2467C3.51333 21.0054 3.588 23.1614 3.52933 24.8267C3.46933 26.5601 4.82 28.1587 6.64667 28.1587H25.356C27.1827 28.1587 28.5333 26.5601 28.472 24.8267C28.4147 23.1614 28.4893 21.0054 29.032 19.2467C29.5773 17.4827 30.496 16.3667 32 16.2227V14.6027C30.496 14.4587 29.5773 13.3414 29.032 11.5787C28.4893 9.81875 28.4147 7.66275 28.472 5.99741C28.5333 4.26408 27.1813 2.66675 25.356 2.66675H6.64667ZM21.6933 18.3587C21.6933 20.7454 19.9133 22.1921 16.96 22.1921H11.932C11.7881 22.1921 11.65 22.1349 11.5483 22.0331C11.4465 21.9314 11.3893 21.7933 11.3893 21.6494V9.17475C11.3897 9.03105 11.447 8.89337 11.5487 8.79189C11.6505 8.6904 11.7883 8.63341 11.932 8.63341H16.932C19.3947 8.63341 21.012 9.96675 21.012 12.0161C21.012 13.4534 19.924 14.7401 18.5387 14.9667V15.0414C20.4253 15.2481 21.6947 16.5547 21.6947 18.3587H21.6933ZM16.4133 10.3521H13.5467V14.4027H15.9613C17.828 14.4027 18.8573 13.6507 18.8573 12.3067C18.8573 11.0481 17.972 10.3521 16.4133 10.3521ZM13.5467 16.0094V20.4721H16.52C18.4627 20.4721 19.4933 19.6921 19.4933 18.2267C19.4933 16.7601 18.4347 16.0094 16.3947 16.0094H13.5467Z" fill="white"/>
</svg>
