<svg width="32" height="32" viewBox="0 0 32 32" fill="none" xmlns="http://www.w3.org/2000/svg">
<g clip-path="url(#clip0_137_465)">
<path d="M31.76 15.9999C31.683 11.7489 28.172 8.36395 23.921 8.43695C23.53 8.43695 23.12 8.46895 22.718 8.50495C19.359 8.99995 17.119 11.4119 15.879 13.2649C14.614 11.4119 12.359 8.99995 9.02602 8.50495C8.62758 8.46432 8.22751 8.44163 7.82702 8.43695C3.57802 8.37395 0.0780234 11.7539 -0.000976562 15.9999C0.0780234 20.2449 3.57802 23.6249 7.82702 23.5629C8.22802 23.5629 8.62402 23.5309 9.05102 23.4789C12.411 22.9999 14.65 20.5879 15.906 18.735C17.171 20.5879 19.411 23 22.759 23.495C23.171 23.531 23.562 23.5629 23.972 23.5629C28.201 23.6039 31.681 20.2299 31.759 15.9999H31.76ZM8.64002 20.8029C8.37502 20.8549 8.06802 20.8549 7.80302 20.8549C6.47594 20.8843 5.19112 20.3875 4.22892 19.4731C3.26672 18.5587 2.70525 17.3008 2.66702 15.9739C2.70836 14.6466 3.27207 13.3893 4.23556 12.4755C5.19905 11.5616 6.48438 11.0651 7.81202 11.0939C8.07902 11.0939 8.37502 11.1209 8.65102 11.1459C11.812 11.6149 13.746 14.7089 14.402 15.9739C13.735 17.2409 11.803 20.3749 8.65102 20.8029H8.64002ZM17.333 15.9999C17.984 14.7599 19.921 11.6399 23.078 11.1719C23.349 11.1199 23.639 11.1199 23.906 11.1199C24.5657 11.1 25.2228 11.2105 25.8397 11.4452C26.4565 11.6799 27.0209 12.0342 27.5005 12.4876C27.98 12.941 28.3653 13.4848 28.6341 14.0875C28.903 14.6903 29.0501 15.3402 29.067 15.9999C29.0236 17.3269 28.459 18.5833 27.4955 19.4968C26.5321 20.4103 25.2474 20.9072 23.92 20.8799C23.6433 20.8762 23.367 20.8588 23.092 20.8279C19.947 20.3599 17.999 17.2399 17.348 15.9999H17.333ZM5.61502 16.787H10.334V15.2399H5.62602V16.787H5.61502ZM24.453 16.787H26.041V15.2399H24.437V13.6509H22.932V15.2549H21.333V16.787H22.932V18.36H24.469V16.8029L24.453 16.787ZM32 9.41195C32 9.81195 31.708 10.0929 31.292 10.0929C31.2017 10.0966 31.1116 10.0821 31.027 10.0503C30.9423 10.0185 30.8649 9.97011 30.7993 9.90794C30.7337 9.84578 30.6812 9.7711 30.6449 9.68832C30.6086 9.60554 30.5893 9.51633 30.588 9.42595C30.588 9.05095 30.907 8.73395 31.292 8.73395C31.708 8.73395 32 9.02595 32 9.41095V9.41195ZM30.787 9.41195C30.787 9.70795 31 9.94795 31.318 9.94795C31.615 9.94795 31.829 9.70795 31.829 9.41195C31.829 9.11995 31.616 8.87995 31.318 8.87995C31.001 8.85495 30.787 9.09295 30.787 9.41195ZM31.188 9.75995H31.052V9.06795L31.317 9.05195C31.437 9.05195 31.505 9.06795 31.562 9.09295C31.614 9.11995 31.639 9.17195 31.639 9.23995C31.639 9.31695 31.587 9.37495 31.494 9.38495C31.562 9.41195 31.587 9.46895 31.614 9.56195L31.65 9.73395H31.494C31.469 9.70695 31.469 9.63895 31.437 9.56195C31.412 9.49395 31.385 9.46895 31.292 9.46895H31.229L31.197 9.75995H31.188ZM31.213 9.35995H31.292C31.385 9.35995 31.427 9.34895 31.427 9.26495C31.427 9.19695 31.386 9.17195 31.292 9.17195H31.197V9.35995H31.213Z" fill="white"/>
</g>
<defs>
<clipPath id="clip0_137_465">
<rect width="32" height="32" fill="white"/>
</clipPath>
</defs>
</svg>
