<svg width="32" height="32" viewBox="0 0 32 32" fill="none" xmlns="http://www.w3.org/2000/svg">
<g clip-path="url(#clip0_137_495)">
<path d="M7 15.4099V24.9999H16.59L14.59 22.9999H9V17.4099L7 15.4099Z" fill="white"/>
<path d="M32.87 30.29L30 27.38V30H2.00002V25.85H4.00002V24.25H2.00002V17.6H4.00002V16H2.00002V9.59996H4.00002V7.99996H2.00002V2.40996L17.94 18.26V15.44L1.71002 -0.710044C1.57015 -0.851073 1.39145 -0.947253 1.1967 -0.986323C1.00195 -1.02539 0.799979 -1.00558 0.616535 -0.929415C0.433092 -0.853248 0.276486 -0.724177 0.166685 -0.558657C0.0568835 -0.393137 -0.00113818 -0.198668 1.6917e-05 -4.36306e-05V31C1.6917e-05 31.2652 0.105374 31.5195 0.29291 31.7071C0.480446 31.8946 0.7348 32 1.00002 32H32.16C32.3586 32.0011 32.5531 31.9431 32.7186 31.8333C32.8841 31.7235 33.0132 31.5669 33.0894 31.3834C33.1656 31.2 33.1854 30.998 33.1463 30.8033C33.1072 30.6085 33.011 30.4298 32.87 30.29Z" fill="white"/>
<path d="M22 27.9999H26C26.5304 27.9999 27.0391 27.7892 27.4142 27.4141C27.7893 27.0391 28 26.5304 28 25.9999V6.69992L25.7 2.46992C25.5221 2.16174 25.2652 1.9066 24.9559 1.73081C24.6465 1.55503 24.2958 1.46497 23.94 1.46992C23.5761 1.47281 23.22 1.5749 22.9098 1.76521C22.5997 1.95552 22.3474 2.22683 22.18 2.54992L20 6.71992V25.9999C20 26.5304 20.2107 27.0391 20.5858 27.4141C20.9609 27.7892 21.4696 27.9999 22 27.9999ZM22 7.19992L23.94 3.42992L26 7.20992V21.9999H22V7.19992ZM22 23.6299H26V26.0699H22V23.6299Z" fill="white"/>
</g>
<defs>
<clipPath id="clip0_137_495">
<rect width="32" height="32" fill="white"/>
</clipPath>
</defs>
</svg>
