<svg width="32" height="32" viewBox="0 0 32 32" fill="none" xmlns="http://www.w3.org/2000/svg">
<path d="M25.3332 8.00008C25.6868 8.00008 26.0259 7.8596 26.276 7.60956C26.526 7.35951 26.6665 7.02037 26.6665 6.66675C26.6665 6.31313 26.526 5.97399 26.276 5.72394C26.0259 5.47389 25.6868 5.33341 25.3332 5.33341C24.9795 5.33341 24.6404 5.47389 24.3904 5.72394C24.1403 5.97399 23.9998 6.31313 23.9998 6.66675C23.9998 7.02037 24.1403 7.35951 24.3904 7.60956C24.6404 7.8596 24.9795 8.00008 25.3332 8.00008ZM25.3332 2.66675C26.394 2.66675 27.4115 3.08818 28.1616 3.83832C28.9117 4.58847 29.3332 5.60588 29.3332 6.66675V14.6667H23.9998V9.33341H7.99984V14.6667H2.6665V6.66675C2.6665 5.60588 3.08793 4.58847 3.83808 3.83832C4.58822 3.08818 5.60564 2.66675 6.6665 2.66675H25.3332ZM23.9998 24.3334C23.9998 24.8401 23.7198 25.2801 23.2932 25.5067L16.7598 29.0934C16.5332 29.2534 16.2798 29.3334 15.9998 29.3334C15.7198 29.3334 15.4532 29.2534 15.2398 29.0934L8.7065 25.5067C8.49274 25.3944 8.31385 25.2257 8.18927 25.0188C8.06468 24.8119 7.99917 24.5749 7.99984 24.3334V17.3334C7.99984 16.8267 8.27984 16.3867 8.7065 16.1601L15.2398 12.9067C15.4532 12.7467 15.7198 12.6667 15.9998 12.6667C16.2798 12.6667 16.5332 12.7467 16.7598 12.9067L23.2932 16.1601C23.7198 16.3867 23.9998 16.8267 23.9998 17.3334V24.3334ZM15.9998 15.5334L12.0532 17.3334L15.9998 19.4667L19.9465 17.3334L15.9998 15.5334ZM10.6665 23.5467L14.6665 25.7201V21.7734L10.6665 19.6134V23.5467ZM21.3332 23.5467V19.6134L17.3332 21.7734V25.7201L21.3332 23.5467Z" fill="white"/>
</svg>
