<svg width="32" height="32" viewBox="0 0 32 32" fill="none" xmlns="http://www.w3.org/2000/svg">
<g clip-path="url(#clip0_137_382)">
<path d="M31.523 7.24008C31.5354 7.28344 31.5417 7.32831 31.5416 7.37341V14.2387C31.5416 14.4187 31.4443 14.5854 31.2896 14.6734L25.5256 17.9934V24.5721C25.5255 24.6601 25.5022 24.7466 25.4583 24.8228C25.4143 24.8991 25.3511 24.9625 25.275 25.0067L13.2403 31.9321C13.2124 31.9474 13.1829 31.9594 13.1523 31.9681C13.1417 31.9707 13.131 31.9787 13.1203 31.9814C13.0367 32.0054 12.948 32.0054 12.8643 31.9814C12.8497 31.9787 12.8377 31.9707 12.8243 31.9654C12.7977 31.9547 12.7683 31.9467 12.7417 31.9321L0.710984 25.0067C0.63445 24.9629 0.570849 24.8996 0.526602 24.8233C0.482356 24.7469 0.459032 24.6603 0.458984 24.5721V3.96541C0.458984 3.92141 0.465651 3.87741 0.477651 3.83474C0.481651 3.81874 0.490984 3.80808 0.496318 3.79208C0.504338 3.76548 0.514597 3.73961 0.526984 3.71474C0.532318 3.69741 0.546984 3.68541 0.557651 3.67074L0.601651 3.61074C0.617651 3.59741 0.634984 3.58674 0.650984 3.57474C0.669651 3.55874 0.686984 3.54274 0.705651 3.52941H0.706984L6.72432 0.0667432C6.80033 0.022859 6.88655 -0.000244141 6.97432 -0.000244141C7.06209 -0.000244141 7.14831 0.022859 7.22432 0.0667432L13.2403 3.52941H13.243C13.263 3.54274 13.279 3.55741 13.2963 3.57341L13.347 3.60941C13.3643 3.62808 13.3737 3.64941 13.391 3.66941C13.4017 3.68408 13.4177 3.69741 13.4243 3.71341C13.4377 3.74008 13.447 3.76408 13.4563 3.79074C13.4603 3.80541 13.4697 3.81874 13.4736 3.83341C13.487 3.87474 13.4923 3.91874 13.4923 3.96408V16.8334L18.5056 13.9481V7.36941C18.5056 7.32541 18.511 7.28141 18.523 7.23874C18.527 7.22541 18.5363 7.21208 18.5403 7.19608C18.5493 7.16918 18.5599 7.1429 18.5723 7.11741C18.5816 7.10141 18.5963 7.09074 18.6056 7.07341C18.6217 7.05341 18.6336 7.03341 18.6497 7.01608C18.6657 7.00008 18.683 6.98941 18.699 6.97874C18.7176 6.96541 18.7337 6.94808 18.7536 6.93608H18.755L24.7723 3.47208C24.8483 3.42819 24.9345 3.40509 25.0223 3.40509C25.1101 3.40509 25.1963 3.42819 25.2723 3.47208L31.2896 6.93608C31.311 6.94941 31.3257 6.96408 31.3456 6.97741C31.3617 6.99074 31.379 7.00141 31.3937 7.01474C31.411 7.03341 31.423 7.05474 31.439 7.07341C31.4496 7.08941 31.4643 7.10141 31.471 7.11741C31.4845 7.14285 31.4952 7.16967 31.503 7.19741C31.511 7.21074 31.519 7.22541 31.523 7.24008ZM30.5363 13.9494V8.23874L28.4323 9.44941L25.523 11.1241V16.8347L30.5363 13.9494ZM24.523 24.2827V18.5667L21.6603 20.2001L13.4923 24.8641V30.6307L24.523 24.2827ZM1.45765 4.83208V24.2827L12.4883 30.6307V24.8641L6.72565 21.6041L6.72298 21.6001H6.72032C6.70165 21.5867 6.68698 21.5721 6.66698 21.5587C6.65232 21.5454 6.63498 21.5347 6.62032 21.5227L6.61898 21.5201C6.60165 21.5041 6.59098 21.4867 6.57765 21.4667C6.56432 21.4521 6.54965 21.4374 6.54032 21.4187H6.53765C6.52698 21.4001 6.52032 21.3774 6.51098 21.3561C6.50298 21.3347 6.49232 21.3201 6.48698 21.2987C6.48194 21.2736 6.47838 21.2483 6.47632 21.2227C6.47365 21.2041 6.46832 21.1867 6.46832 21.1681V7.71874L3.56165 6.04274L1.45765 4.83208ZM6.97365 1.08008L1.96032 3.96541L6.97365 6.85074L11.9843 3.96541L6.97365 1.08008ZM9.58165 19.0867L12.491 17.4121V4.83208L10.3843 6.04541L7.47498 7.71874V20.2987L9.58165 19.0867ZM25.023 4.48674L20.0096 7.37074L25.023 10.2547L30.035 7.36941L25.023 4.48674ZM24.5217 11.1241L21.6136 9.44941L19.507 8.24008V13.9507L22.4163 15.6254L24.523 16.8361L24.5217 11.1241ZM12.9883 23.9961L20.3403 19.7987L24.015 17.7027L19.0056 14.8187L13.2417 18.1374L7.98698 21.1641L12.9883 23.9961Z" fill="white"/>
</g>
<defs>
<clipPath id="clip0_137_382">
<rect width="32" height="32" fill="white"/>
</clipPath>
</defs>
</svg>
