<svg width="20" height="31" viewBox="0 0 20 31" fill="none" xmlns="http://www.w3.org/2000/svg">
<rect x="1" y="1" width="18" height="28.8333" rx="9" stroke="#FCFCFC" stroke-width="2"/>
<path d="M7.64352 19.8487L6.46436 21.027L10.0002 24.5628L13.536 21.027L12.3569 19.8487L10.0002 22.2062L7.64352 19.8487ZM12.3569 11.8187L13.536 10.6403L10.0002 7.10449L6.46436 10.6403L7.64352 11.8187L10.0002 9.46199L12.3569 11.8187Z" fill="#FCFCFC"/>
<path fill-rule="evenodd" clip-rule="evenodd" d="M10 13.3336C10.663 13.3336 11.2989 13.597 11.7678 14.0659C12.2366 14.5347 12.5 15.1706 12.5 15.8336C12.5 16.4967 12.2366 17.1325 11.7678 17.6014C11.2989 18.0702 10.663 18.3336 10 18.3336C9.33696 18.3336 8.70107 18.0702 8.23223 17.6014C7.76339 17.1325 7.5 16.4967 7.5 15.8336C7.5 15.1706 7.76339 14.5347 8.23223 14.0659C8.70107 13.597 9.33696 13.3336 10 13.3336ZM10 15.0003C10.221 15.0003 10.433 15.0881 10.5893 15.2444C10.7455 15.4006 10.8333 15.6126 10.8333 15.8336C10.8333 16.0546 10.7455 16.2666 10.5893 16.4229C10.433 16.5792 10.221 16.667 10 16.667C9.77899 16.667 9.56702 16.5792 9.41074 16.4229C9.25446 16.2666 9.16667 16.0546 9.16667 15.8336C9.16667 15.6126 9.25446 15.4006 9.41074 15.2444C9.56702 15.0881 9.77899 15.0003 10 15.0003Z" fill="#FCFCFC"/>
</svg>
