<svg width="54" height="63" viewBox="0 0 54 63" fill="none" xmlns="http://www.w3.org/2000/svg">
<path d="M54 6.23077H49.8462V2.90873C49.8462 1.30846 48.6436 0 47.1773 0H33.8185C32.3564 0 31.1538 1.30846 31.1538 2.90873V6.23077H6.1695L0 18.6923H4.28365V27H3.58996L0.129808 31.1538L3.58996 35.3077H4.34804V37.5383C4.34804 38.1022 4.78315 38.5581 5.32212 38.5581C6.93277 38.5581 8.24331 39.933 8.24331 41.6226C8.24331 43.3122 6.93277 44.6871 5.32212 44.6871C3.71146 44.6871 2.40092 43.3122 2.40092 41.6226C2.40092 41.0587 1.96477 40.6028 1.42685 40.6028C0.887885 40.6028 0.452769 41.0587 0.452769 41.6226C0.454846 44.441 2.63769 46.7308 5.32212 46.7308C8.0055 46.7308 10.1904 44.441 10.1904 41.6236C10.1904 39.1573 8.51538 37.0928 6.29619 36.6203V35.3077H7.05323L10.5144 31.1538L7.05323 27H6.36058V18.6923H31.1538V26.1682C31.1538 27.5473 32.048 28.7031 33.2308 29.0001V62.3077H35.9567V56.0769L45.0433 59.1923L35.9567 62.3077H47.7692V28.999C48.9531 28.7031 49.8462 27.5473 49.8462 26.1682V18.6923H54V15.5769H51.8421L54 11.4802V6.23077ZM4.82158 15.5769L7.24742 10.5933L9.87058 15.5769H4.82158ZM9.41365 9.34615H13.7264L11.5705 13.4429L9.41365 9.34615ZM13.2705 15.5769L15.4274 11.4802L17.5853 15.5769H13.2705ZM17.1284 9.34615H21.4411L19.2842 13.4429L17.1284 9.34615ZM20.9863 15.5769L23.1421 11.4802L25.298 15.5769H20.9863ZM24.8431 9.34615H29.1558L27 13.4429L24.8431 9.34615ZM31.1538 15.5769H28.7L30.8558 11.4802L31.1538 12.0462V15.5769ZM45.0433 56.0769L35.9567 52.9615L45.0433 49.8462V56.0769ZM35.9567 49.8462V43.6154L45.0433 46.7328L35.9567 49.8462ZM45.0433 43.6154L35.9567 40.5L45.0433 37.3846V43.6154ZM35.9567 37.3846V31.1559L45.0433 34.2692L35.9567 37.3846ZM45.0433 31.1559L38.9838 29.0769H45.0433V31.1559ZM46.601 13.7575C46.601 14.7576 45.899 15.5769 45.0433 15.5769H35.695C34.8393 15.5769 34.1394 14.7576 34.1394 13.7575V4.941C34.1394 3.93473 34.8393 3.11538 35.695 3.11538H45.0433C45.899 3.11538 46.601 3.93473 46.601 4.941V13.7575ZM50.1421 13.4429L49.8462 12.88V9.34615H52.298L50.1421 13.4429Z" fill="#353736"/>
</svg>
