<svg width="58" height="54" viewBox="0 0 58 54" fill="none" xmlns="http://www.w3.org/2000/svg">
<path d="M50.3694 18.8661V5.03696C50.3715 4.37577 50.243 3.72068 49.9912 3.10929C49.7394 2.4979 49.3694 1.94226 48.9023 1.47425C48.4353 1.00625 47.8804 0.635096 47.2695 0.382103C46.6586 0.129111 46.0038 -0.00074033 45.3426 3.17488e-06H31.5213C30.615 0.00186781 29.746 0.361017 29.1029 0.999525L1.47156 28.623C0.529175 29.5684 0 30.8488 0 32.1837C0 33.5186 0.529175 34.799 1.47156 35.7444L14.6261 48.899C15.5712 49.8416 16.8515 50.3709 18.1863 50.3709C19.5211 50.3709 20.8014 49.8416 21.7465 48.899L49.3699 21.2845C50.0086 20.6415 50.3678 19.7724 50.3694 18.8661ZM39.5759 14.3913C38.8644 14.3913 38.1688 14.1803 37.5771 13.785C36.9854 13.3896 36.5243 12.8277 36.252 12.1703C35.9797 11.5129 35.9084 10.7895 36.0472 10.0916C36.1861 9.39368 36.5287 8.75261 37.0319 8.24944C37.5351 7.74627 38.1761 7.40361 38.874 7.26479C39.572 7.12597 40.2954 7.19722 40.9528 7.46953C41.6102 7.74184 42.1721 8.20298 42.5674 8.79464C42.9628 9.3863 43.1738 10.0819 43.1738 10.7935C43.1738 11.7477 42.7947 12.6628 42.12 13.3375C41.4453 14.0123 40.5301 14.3913 39.5759 14.3913Z" fill="#353736"/>
<path d="M55.7662 5.39676C55.2891 5.39676 54.8315 5.58629 54.4941 5.92365C54.1568 6.26101 53.9673 6.71857 53.9673 7.19567V21.5162L24.5876 50.8969C24.4135 51.0623 24.2743 51.2609 24.1782 51.4809C24.0821 51.7009 24.031 51.938 24.0279 52.1781C24.0248 52.4182 24.0698 52.6564 24.1603 52.8789C24.2508 53.1013 24.3848 53.3033 24.5546 53.4731C24.7244 53.6429 24.9265 53.777 25.1489 53.8675C25.3713 53.9579 25.6096 54.0029 25.8497 53.9999C26.0898 53.9968 26.3268 53.9457 26.5469 53.8496C26.7669 53.7534 26.9654 53.6142 27.1308 53.4401L56.5881 23.9829C56.9014 23.6681 57.1491 23.2942 57.3168 22.8829C57.4846 22.4716 57.5689 22.0311 57.5651 21.587V7.19567C57.5651 6.71857 57.3756 6.26101 57.0382 5.92365C56.7008 5.58629 56.2433 5.39676 55.7662 5.39676Z" fill="#353736"/>
</svg>
