<svg width="92" height="92" viewBox="0 0 92 92" fill="none" xmlns="http://www.w3.org/2000/svg">
<circle cx="46" cy="46" r="46" fill="url(#paint0_linear_137_653)"/>
<ellipse cx="45.8396" cy="69.4821" rx="31.6853" ry="0.965035" fill="#616161" fill-opacity="0.42"/>
<path d="M38.5732 33.8453L37.0735 32.98C37.2755 32.44 37.3907 31.8587 37.3907 31.25C37.3907 30.6413 37.2755 30.06 37.0743 29.5209L38.574 28.6555L38.9881 29.3726L40.4224 28.5445L38.7662 25.6751L37.3319 26.5032L37.7459 27.2203L36.2495 28.0841C35.505 27.1856 34.4492 26.5578 33.2509 26.3558V24.625H34.079V22.9688H30.7665V24.625H31.5946V26.3558C30.3963 26.5578 29.3404 27.1856 28.596 28.0841L27.0995 27.2203L27.5136 26.5032L26.0793 25.6751L24.423 28.5445L25.8574 29.3726L26.2714 28.6555L27.7712 29.5209C27.5683 30.06 27.4532 30.6413 27.4532 31.25C27.4532 31.8587 27.5683 32.44 27.7695 32.9791L26.2698 33.8445L25.8557 33.1274L24.4214 33.9555L26.0776 36.8249L27.5119 35.9968L27.0979 35.2797L28.5943 34.4159C29.3388 35.3144 30.3947 35.9422 31.5929 36.1442V37.875H30.7648V39.5312H34.0773V37.875H33.2492V36.1442C34.4475 35.9422 35.5034 35.3144 36.2478 34.4159L37.7443 35.2797L37.3302 35.9968L38.7645 36.8249L40.4208 33.9555L38.9864 33.1274L38.5732 33.8453ZM32.4219 34.5625C30.5951 34.5625 29.1094 33.0768 29.1094 31.25C29.1094 29.4232 30.5951 27.9375 32.4219 27.9375C34.2487 27.9375 35.7344 29.4232 35.7344 31.25C35.7344 33.0768 34.2487 34.5625 32.4219 34.5625Z" fill="#616161"/>
<path d="M32.4219 19.6562C26.0287 19.6562 20.8281 24.8569 20.8281 31.25C20.8281 37.6431 26.0287 42.8438 32.4219 42.8438C38.815 42.8438 44.0156 37.6431 44.0156 31.25C44.0156 24.8569 38.815 19.6562 32.4219 19.6562ZM32.4219 41.1875C26.9422 41.1875 22.4844 36.7297 22.4844 31.25C22.4844 25.7703 26.9422 21.3125 32.4219 21.3125C37.9016 21.3125 42.3594 25.7703 42.3594 31.25C42.3594 36.7297 37.9016 41.1875 32.4219 41.1875Z" fill="#616161"/>
<path d="M72.1719 48.6407C72.1719 47.2933 71.5152 46.1058 70.5156 45.3497V41.1875C70.5156 40.9673 70.4287 40.7569 70.273 40.6021L62.5772 32.9063L66.1324 29.3511C66.4562 29.0273 66.4562 28.504 66.1324 28.1802L65.8897 27.9375L68.0312 25.796L69.102 26.8668L70.273 25.6958L63.648 19.0708L62.477 20.2418L63.5478 21.3125L61.4062 23.4541L61.1636 23.2114C60.8398 22.8876 60.3164 22.8876 59.9926 23.2114L49.227 33.9771C49.0713 34.1319 48.9844 34.3423 48.9844 34.5625V41.1875H48.1562C47.6991 41.1875 47.3281 41.5577 47.3281 42.0157V50.2969C47.3281 50.7549 47.6991 51.125 48.1562 51.125H52.2969V53.6094C52.2969 54.0674 52.6679 54.4375 53.125 54.4375H56.4375C56.8946 54.4375 57.2656 54.0674 57.2656 53.6094V51.125H61.4062C61.8634 51.125 62.2344 50.7549 62.2344 50.2969V42.0157C62.2344 41.5577 61.8634 41.1875 61.4062 41.1875H60.5781V38.2179L64.7188 42.3585V46.182C64.2053 46.8718 63.8906 47.7173 63.8906 48.6407C63.8906 49.564 64.2053 50.4095 64.7188 51.0994V56.0938H46.5V57.75H64.7188V63.5469H60.5781V61.0625C60.5781 60.6046 60.2071 60.2344 59.75 60.2344H49.8125C49.3554 60.2344 48.9844 60.6046 48.9844 61.0625V63.5469H43.1875C41.8178 63.5469 40.7031 64.6616 40.7031 66.0313V68.5157C40.7031 68.9736 41.0741 69.3438 41.5312 69.3438H66.375C68.6581 69.3438 70.5156 67.4863 70.5156 65.2032V51.9316C71.5152 51.1756 72.1719 49.988 72.1719 48.6407ZM64.7188 22.4835L66.8603 24.625L64.7188 26.7666L62.5772 24.625L64.7188 22.4835ZM55.6094 52.7813H53.9531V51.125H55.6094V52.7813ZM60.5781 49.4688H48.9844V42.8438H60.5781V49.4688ZM50.6406 41.1875V34.9054L60.5781 24.9679L64.3759 28.7657L59.1645 33.9771C59.0088 34.1319 58.9219 34.3423 58.9219 34.5625V41.1875H50.6406ZM60.5781 35.8759V34.9054L61.4062 34.0773L68.8594 41.5304V44.5837C68.5919 44.529 68.3145 44.5 68.0312 44.5C67.4416 44.5 66.8835 44.6276 66.375 44.8512V42.0157C66.375 41.7954 66.288 41.585 66.1324 41.4302L60.5781 35.8759ZM50.6406 61.8907H58.9219V63.5469H50.6406V61.8907ZM68.8594 65.2032C68.8594 66.5729 67.7447 67.6875 66.375 67.6875H42.3594V66.0313C42.3594 65.5742 42.7312 65.2032 43.1875 65.2032H65.5469C66.004 65.2032 66.375 64.833 66.375 64.375V52.4302C66.8835 52.6538 67.4416 52.7813 68.0312 52.7813C68.3145 52.7813 68.5919 52.7523 68.8594 52.6976V65.2032ZM68.0312 51.125C66.6615 51.125 65.5469 50.0104 65.5469 48.6407C65.5469 47.2709 66.6615 46.1563 68.0312 46.1563C69.401 46.1563 70.5156 47.2709 70.5156 48.6407C70.5156 50.0104 69.401 51.125 68.0312 51.125Z" fill="#616161"/>
<path d="M32.4219 44.5H30.7656V46.1562H32.4219V44.5Z" fill="#616161"/>
<path d="M32.4219 47.8125H30.7656V49.4688H32.4219V47.8125Z" fill="#616161"/>
<path d="M32.4219 51.125H30.7656V52.7812H32.4219V51.125Z" fill="#616161"/>
<path d="M32.4219 54.4375H30.7656V56.0938H32.4219V54.4375Z" fill="#616161"/>
<path d="M32.4219 57.75H30.7656V59.4062H32.4219V57.75Z" fill="#616161"/>
<path d="M32.4219 61.0625H30.7656V62.7188H32.4219V61.0625Z" fill="#616161"/>
<path d="M32.4219 64.375H30.7656V66.0312H32.4219V64.375Z" fill="#616161"/>
<path d="M35.7344 64.375H34.0781V66.0312H35.7344V64.375Z" fill="#616161"/>
<path d="M39.0469 64.375H37.3906V66.0312H39.0469V64.375Z" fill="#616161"/>
<path d="M46.5 26.2812H44.8438V27.9375H46.5V26.2812Z" fill="#616161"/>
<path d="M49.8125 26.2812H48.1562V27.9375H49.8125V26.2812Z" fill="#616161"/>
<path d="M53.125 26.2812H51.4688V27.9375H53.125V26.2812Z" fill="#616161"/>
<defs>
<linearGradient id="paint0_linear_137_653" x1="46" y1="0" x2="46" y2="92" gradientUnits="userSpaceOnUse">
<stop stop-color="#FFE9B1"/>
<stop offset="1" stop-color="#F9D371"/>
</linearGradient>
</defs>
</svg>
