<svg width="92" height="92" viewBox="0 0 92 92" fill="none" xmlns="http://www.w3.org/2000/svg">
<circle cx="46" cy="46" r="46" fill="url(#paint0_linear_137_729)"/>
<ellipse cx="45.8396" cy="69.4821" rx="31.6853" ry="0.965035" fill="url(#paint1_linear_137_729)"/>
<g clip-path="url(#clip0_137_729)">
<rect width="46.965" height="46.965" transform="translate(22.5166 22.5178)" fill="url(#paint2_linear_137_729)"/>
<path d="M69.4818 67.9678H67.9668V69.4828H69.4818V67.9678Z" fill="#616161"/>
<path d="M58.8766 30.0928V24.0328H46.7566V22.5178H45.2416V24.0328H33.1216V40.4001L28.5766 37.7762V37.6678H28.3895L28.2259 37.5731L28.1706 37.6678H22.5166V48.2728C22.5166 49.9439 23.8756 51.3028 25.5466 51.3028H33.1216V54.3328H39.7725L37.0455 67.9678H22.5166V69.4829H45.2416H46.7566H66.4516V67.9678H54.9528L52.2258 54.3328H58.8766V42.2128H64.9366V40.6978H63.6337L65.0048 35.215L62.1967 31.7048C65.0396 32.2032 67.2091 34.684 67.2091 37.6678H68.7241C68.7241 35.1885 67.5212 32.9903 65.6744 31.6078H69.4816V30.0928H58.8766ZM27.0616 48.2728C27.0616 49.1084 26.3821 49.7878 25.5466 49.7878C24.7111 49.7878 24.0316 49.1084 24.0316 48.2728V39.1828H27.0616V48.2728ZM32.6603 42.4166L34.1753 45.0398L29.2796 47.8668L32.3088 42.6196L32.6603 42.4166ZM28.5766 39.9956L28.7804 39.6426L31.4036 41.1576L28.5766 46.0541V39.9956ZM28.9811 49.7878L34.2298 46.7578H34.6366V49.7878H28.9811ZM45.2416 67.9678H38.5908L41.3178 54.3328H45.2416V67.9678ZM53.4075 67.9678H46.7566V54.3328H50.6805L53.4075 67.9678ZM57.2934 35.215L58.6645 40.6978H57.3616V41.4553V42.2128V52.8178H34.6366V51.3028H36.1516V45.6481L36.2455 45.5936L36.1516 45.4315V45.2428H36.0425L34.6366 42.8075V25.5478H57.3616V30.0928H52.8166V31.6078H56.6238C54.777 32.9903 53.5741 35.1885 53.5741 37.6678H55.0891C55.0891 34.684 57.2586 32.2032 60.1015 31.7048L57.2934 35.215ZM63.3535 35.5764L62.0733 40.6978H60.225L58.9448 35.5756L60.3916 33.7675V36.9103H61.9066V33.7675L63.3535 35.5764Z" fill="#616161"/>
<path d="M39.1815 28.5779H37.6665V30.0929H39.1815V28.5779Z" fill="#616161"/>
<path d="M54.3314 48.2729H52.8164V49.788H54.3314V48.2729Z" fill="#616161"/>
<path d="M52.8167 39.1829C52.8167 35.4235 49.7586 32.3654 45.9991 32.3654C44.7735 32.3654 43.6251 32.695 42.6305 33.2631L40.552 30.405L39.3271 31.2959L41.4087 34.1577C40.0437 35.4053 39.1816 37.193 39.1816 39.1829C39.1816 42.9424 42.2397 46.0005 45.9991 46.0005C47.2248 46.0005 48.3732 45.6709 49.3678 45.1028L51.4463 47.9609L52.6712 47.07L50.5896 44.2082C51.9546 42.9606 52.8167 41.1729 52.8167 39.1829ZM45.9991 44.4855C43.076 44.4855 40.6966 42.1061 40.6966 39.1829C40.6966 37.696 41.314 36.3522 42.3033 35.3886L48.4716 43.8704C47.7323 44.2612 46.8922 44.4855 45.9991 44.4855ZM43.5267 34.4955C44.266 34.1047 45.1061 33.8804 45.9991 33.8804C48.9223 33.8804 51.3017 36.2598 51.3017 39.1829C51.3017 40.6699 50.6843 42.0137 49.695 42.9773L43.5267 34.4955Z" fill="#616161"/>
</g>
<defs>
<linearGradient id="paint0_linear_137_729" x1="46" y1="0" x2="46" y2="92" gradientUnits="userSpaceOnUse">
<stop stop-color="#FFE9B1"/>
<stop offset="1" stop-color="#F9D371"/>
</linearGradient>
<linearGradient id="paint1_linear_137_729" x1="45.8396" y1="68.5171" x2="45.8396" y2="70.4472" gradientUnits="userSpaceOnUse">
<stop stop-color="#FFE9B1"/>
<stop offset="1" stop-color="#F9D371"/>
</linearGradient>
<linearGradient id="paint2_linear_137_729" x1="23.4825" y1="0" x2="23.4825" y2="46.965" gradientUnits="userSpaceOnUse">
<stop stop-color="#FFE9B1"/>
<stop offset="1" stop-color="#F9D371"/>
</linearGradient>
<clipPath id="clip0_137_729">
<rect width="46.965" height="46.965" fill="white" transform="translate(22.5166 22.5178)"/>
</clipPath>
</defs>
</svg>
