<svg width="92" height="92" viewBox="0 0 92 92" fill="none" xmlns="http://www.w3.org/2000/svg">
<circle cx="46" cy="46" r="46" fill="url(#paint0_linear_137_748)"/>
<path d="M63.3906 27.875L61.9219 27.1406L60.4531 27.875V22.7344H54.5781V37.4219H69.2656V22.7344H63.3906V27.875Z" fill="#616161"/>
<path d="M67.0625 59.0859H61.9219C61.3376 59.0859 60.7772 59.3181 60.364 59.7312C59.9509 60.1444 59.7188 60.7048 59.7188 61.2891V68.2656H69.2656V61.2891C69.2656 60.7048 69.0335 60.1444 68.6203 59.7312C68.2072 59.3181 67.6468 59.0859 67.0625 59.0859Z" fill="#616161"/>
<path d="M64.4922 59.0859C65.8103 59.0859 66.8789 58.0174 66.8789 56.6992C66.8789 55.3811 65.8103 54.3125 64.4922 54.3125C63.174 54.3125 62.1055 55.3811 62.1055 56.6992C62.1055 58.0174 63.174 59.0859 64.4922 59.0859Z" fill="#616161"/>
<path d="M39.1562 30.8124H49.8678L48.9183 31.762L49.9567 32.8004L52.1598 30.5972C52.2975 30.4595 52.3748 30.2728 52.3748 30.078C52.3748 29.8833 52.2975 29.6966 52.1598 29.5588L49.9567 27.3557L48.9183 28.3941L49.8678 29.3437H39.1562V30.8124Z" fill="#616161"/>
<path d="M55.0973 58.9338L54.0589 59.9722L55.0085 60.9218H49.4375V62.3905H55.0085L54.0589 63.3401L55.0973 64.3785L57.3005 62.1754C57.4381 62.0377 57.5155 61.8509 57.5155 61.6562C57.5155 61.4614 57.4381 61.2747 57.3005 61.137L55.0973 58.9338Z" fill="#616161"/>
<path d="M52.5902 38.364L42.0938 48.8612V47.5246H40.625V50.6406C40.625 50.8353 40.7024 51.0221 40.8401 51.1598C40.9778 51.2976 41.1646 51.3749 41.3594 51.3749H44.4753V49.9062H43.1255L53.6271 39.4046L52.5902 38.364Z" fill="#616161"/>
<path d="M31.0781 22.7344H29.6094V24.2031H31.0781V22.7344Z" fill="#616161"/>
<path d="M25.591 32.0644L24.3276 32.8135L25.0771 34.0775L26.3405 33.3284L25.591 32.0644Z" fill="#616161"/>
<path d="M24.7001 25.5595L23.9697 26.8337L25.244 27.5641L25.9744 26.2898L24.7001 25.5595Z" fill="#616161"/>
<path d="M35.0973 32.064L34.3477 33.3279L35.6109 34.0771L36.3605 32.8132L35.0973 32.064Z" fill="#616161"/>
<path d="M35.9867 25.5598L34.7124 26.29L35.4427 27.5644L36.717 26.8341L35.9867 25.5598Z" fill="#616161"/>
<path d="M27.4062 56.1484H25.2031V57.6172H27.4062V56.1484Z" fill="#616161"/>
<path d="M27.4062 62.0234H25.2031V63.4922H27.4062V62.0234Z" fill="#616161"/>
<path d="M26.6719 59.0859H23.7344V60.5547H26.6719V59.0859Z" fill="#616161"/>
<path d="M32.1797 68.2656C33.1936 68.2656 34.0156 67.4436 34.0156 66.4297C34.0156 65.4157 33.1936 64.5938 32.1797 64.5938C31.1657 64.5938 30.3438 65.4157 30.3438 66.4297C30.3438 67.4436 31.1657 68.2656 32.1797 68.2656Z" fill="#616161"/>
<path d="M43.9297 68.2656C44.9436 68.2656 45.7656 67.4436 45.7656 66.4297C45.7656 65.4157 44.9436 64.5938 43.9297 64.5938C42.9157 64.5938 42.0938 65.4157 42.0938 66.4297C42.0938 67.4436 42.9157 68.2656 43.9297 68.2656Z" fill="#616161"/>
<path d="M28.1406 66.4297H29.6094C29.6094 65.748 29.8802 65.0942 30.3622 64.6122C30.8442 64.1302 31.498 63.8594 32.1797 63.8594C32.8614 63.8594 33.5151 64.1302 33.9972 64.6122C34.4792 65.0942 34.75 65.748 34.75 66.4297H39.8906V53.9453H28.1406V66.4297Z" fill="#616161"/>
<path d="M40.625 56.1484V66.4297H41.3594C41.3594 65.748 41.6302 65.0942 42.1122 64.6122C42.5942 64.1302 43.248 63.8594 43.9297 63.8594C44.6114 63.8594 45.2651 64.1302 45.7472 64.6122C46.2292 65.0942 46.5 65.748 46.5 66.4297H47.2344V59.8203L44.2969 56.1484H40.625ZM42.0938 59.8203V57.6172H43.9297L45.7656 59.8203H42.0938Z" fill="#616161"/>
<path d="M26.4275 29.5883C26.4268 30.5144 26.7553 31.4105 27.3543 32.1168C27.7737 32.6068 28.1166 33.1575 28.3714 33.75H32.2709C32.4764 33.2076 32.7857 32.7104 33.1815 32.2864C33.6225 31.8225 33.9431 31.2577 34.1152 30.6412C34.2874 30.0248 34.3059 29.3756 34.1691 28.7504C34.0323 28.1251 33.7444 27.543 33.3306 27.0547C32.9167 26.5665 32.3896 26.1871 31.7952 25.9498C31.2008 25.7124 30.5573 25.6243 29.921 25.6931C29.2847 25.762 28.675 25.9857 28.1452 26.3447C27.6153 26.7037 27.1815 27.1871 26.8817 27.7525C26.5819 28.318 26.4252 28.9483 26.4253 29.5883H26.4275Z" fill="#616161"/>
<path d="M30.3438 37.4219C30.7593 37.4219 31.1577 37.2568 31.4515 36.9631C31.7452 36.6693 31.9103 36.2709 31.9103 35.8555V35.7145C31.9103 35.5492 31.9183 35.3832 31.933 35.2188H28.7524C28.7679 35.3744 28.7774 35.5309 28.7774 35.6895V35.8555C28.7774 36.0612 28.8179 36.2648 28.8966 36.4549C28.9754 36.6449 29.0907 36.8176 29.2362 36.9631C29.3817 37.1085 29.5543 37.2239 29.7444 37.3026C29.9344 37.3814 30.1381 37.4219 30.3438 37.4219Z" fill="#616161"/>
<ellipse cx="45.8396" cy="69.4821" rx="31.6853" ry="0.965035" fill="#616161" fill-opacity="0.42"/>
<defs>
<linearGradient id="paint0_linear_137_748" x1="46" y1="0" x2="46" y2="92" gradientUnits="userSpaceOnUse">
<stop stop-color="#FFE9B1"/>
<stop offset="1" stop-color="#F9D371"/>
</linearGradient>
</defs>
</svg>
