<svg width="92" height="92" viewBox="0 0 92 92" fill="none" xmlns="http://www.w3.org/2000/svg">
<circle cx="46" cy="46" r="46" fill="url(#paint0_linear_137_668)"/>
<path d="M63.9688 54.1875C63.9688 55.7687 62.675 57.0625 61.0938 57.0625C59.5125 57.0625 58.2188 55.7687 58.2188 54.1875V52.75H56.0625V54.9062C56.0625 55.3375 55.775 55.625 55.3438 55.625H53.1875C52.3969 55.625 51.75 56.2719 51.75 57.0625C51.75 57.8531 52.3969 58.5 53.1875 58.5H55.3438C55.775 58.5 56.0625 58.7875 56.0625 59.2188V62.8125H64.6875C65.4781 62.8125 66.125 62.1656 66.125 61.375V52.75H63.9688V54.1875Z" fill="#616161"/>
<path d="M50.3125 57.0625C50.3125 55.4813 51.6062 54.1875 53.1875 54.1875H54.625V52.75H44.5625V61.375C44.5625 62.1656 45.2094 62.8125 46 62.8125H54.625V59.9375H53.1875C51.6062 59.9375 50.3125 58.6438 50.3125 57.0625Z" fill="#616161"/>
<path d="M64.6875 41.25H56.0625V42.6875H57.5C59.0812 42.6875 60.375 43.9813 60.375 45.5625C60.375 47.1438 59.0812 48.4375 57.5 48.4375H56.0625V51.3125H58.9375C59.3688 51.3125 59.6562 51.6 59.6562 52.0312V54.1875C59.6562 54.9781 60.3031 55.625 61.0938 55.625C61.8844 55.625 62.5312 54.9781 62.5312 54.1875V52.0312C62.5312 51.6 62.8187 51.3125 63.25 51.3125H66.125V42.6875C66.125 41.8969 65.4781 41.25 64.6875 41.25Z" fill="#616161"/>
<path d="M46.7189 46.7125L44.3471 44.3406L43.3408 45.3469L48.3721 50.3781C48.5158 50.5219 48.7314 50.5938 48.8752 50.5938C49.0189 50.5938 49.2346 50.5219 49.3783 50.3781L54.4096 45.3469L53.4033 44.3406L51.0314 46.7125V42.6875H49.5939V48.15L48.8752 48.8687L48.1564 48.15V45.5625H46.7189V46.7125Z" fill="#616161"/>
<path d="M48.1562 42.6875H46.7188V44.125H48.1562V42.6875Z" fill="#616161"/>
<path d="M48.1562 39.8125H46.7188V41.25H48.1562V39.8125Z" fill="#616161"/>
<path d="M51.0312 39.8125H49.5938V41.25H51.0312V39.8125Z" fill="#616161"/>
<path d="M56.0624 29.75H53.9061C53.4749 29.75 53.1874 29.4625 53.1874 29.0312V26.875H44.5624C43.7718 26.875 43.1249 27.5219 43.1249 28.3125V35.7156C43.053 35.7156 42.9811 35.7875 42.9093 35.7875L38.6686 37.8C38.2374 37.225 37.6624 36.7219 37.0155 36.2906C38.8843 35.3563 40.178 33.4156 40.178 31.1875C40.178 28.025 37.5905 25.4375 34.428 25.4375C31.2655 25.4375 28.678 28.025 28.678 31.1875C28.678 33.2719 29.828 35.1406 31.4811 36.1469C30.0436 36.8656 28.8936 38.1594 28.4624 39.8844L25.5874 48.9406C24.7968 51.5281 24.9405 54.2594 26.0186 56.7031C27.3124 59.1469 27.2405 62.0938 25.9468 64.6094L24.5093 67.4844C24.3655 67.7 24.4374 67.9875 24.5093 68.2031C24.653 68.4188 24.9405 68.5625 25.1561 68.5625H33.0624C33.4936 68.5625 33.7811 68.275 33.7811 67.8438C33.7811 66.4781 32.9905 65.2562 31.8405 64.6812L32.1999 63.9625C33.2061 61.8781 33.5655 59.5063 33.1343 57.2063L32.6311 54.2594C32.5593 53.9719 32.703 53.7563 32.7749 53.6844C32.8468 53.6125 32.9905 53.4688 33.278 53.4688C33.6374 53.4688 33.9249 53.6844 33.9968 54.0437L35.003 59.4344C35.1468 60.2969 35.2186 61.1594 35.2186 62.0938V67.8438C35.2186 68.275 35.5061 68.5625 35.9374 68.5625H43.8436C44.2749 68.5625 44.5624 68.275 44.5624 67.8438C44.5624 67.7 44.5624 67.5563 44.5624 67.4125C44.4186 66.3344 43.7718 65.4 42.7655 64.8969C41.9749 64.4656 41.0405 64.3937 40.178 64.6812L40.6811 62.3094C40.8968 61.2313 40.9686 60.225 40.9686 59.1469V52.6781L40.1061 43.0469L45.0655 40.675C46.0718 40.2438 46.6468 39.3094 46.6468 38.2312C46.6468 37.8 46.503 37.3687 46.2874 36.9375H53.1874V33.3438C53.1874 32.9125 53.4749 32.625 53.9061 32.625H56.0624C56.853 32.625 57.4999 31.9781 57.4999 31.1875C57.4999 30.3969 56.853 29.75 56.0624 29.75Z" fill="#616161"/>
<ellipse cx="45.8396" cy="69.4821" rx="31.6853" ry="0.965035" fill="url(#paint1_linear_137_668)"/>
<ellipse cx="45.8396" cy="69.4821" rx="31.6853" ry="0.965035" fill="#616161" fill-opacity="0.42"/>
<defs>
<linearGradient id="paint0_linear_137_668" x1="46" y1="0" x2="46" y2="92" gradientUnits="userSpaceOnUse">
<stop stop-color="#FFE9B1"/>
<stop offset="1" stop-color="#F9D371"/>
</linearGradient>
<linearGradient id="paint1_linear_137_668" x1="45.8396" y1="68.5171" x2="45.8396" y2="70.4472" gradientUnits="userSpaceOnUse">
<stop stop-color="#FFE9B1"/>
<stop offset="1" stop-color="#F9D371"/>
</linearGradient>
</defs>
</svg>
