<svg width="92" height="92" viewBox="0 0 92 92" fill="none" xmlns="http://www.w3.org/2000/svg">
<circle cx="46" cy="46" r="46" fill="url(#paint0_linear_137_691)"/>
<ellipse cx="45.8396" cy="69.4821" rx="31.6853" ry="0.965035" fill="#616161" fill-opacity="0.42"/>
<path d="M36.2105 28.6051C36.6158 28.6051 36.9444 28.2766 36.9444 27.8712C36.9444 27.4659 36.6158 27.1373 36.2105 27.1373C35.8051 27.1373 35.4766 27.4659 35.4766 27.8712C35.4766 28.2766 35.8051 28.6051 36.2105 28.6051Z" fill="#616161"/>
<path d="M39.146 28.6051C39.5513 28.6051 39.8799 28.2766 39.8799 27.8712C39.8799 27.4659 39.5513 27.1373 39.146 27.1373C38.7407 27.1373 38.4121 27.4659 38.4121 27.8712C38.4121 28.2766 38.7407 28.6051 39.146 28.6051Z" fill="#616161"/>
<path d="M43.5494 60.1631C42.9654 60.1631 42.4054 60.3951 41.9925 60.808C41.5796 61.2209 41.3477 61.7809 41.3477 62.3648C41.3477 62.9487 41.5796 63.5088 41.9925 63.9217C42.4054 64.3346 42.9654 64.5665 43.5494 64.5665H49.4206C50.0046 64.5665 50.5646 64.3346 50.9775 63.9217C51.3904 63.5088 51.6223 62.9487 51.6223 62.3648C51.6223 61.7809 51.3904 61.2209 50.9775 60.808C50.5646 60.3951 50.0046 60.1631 49.4206 60.1631H43.5494ZM50.1545 62.3648C50.1545 62.5594 50.0772 62.7461 49.9396 62.8838C49.8019 63.0214 49.6153 63.0987 49.4206 63.0987H43.5494C43.3547 63.0987 43.1681 63.0214 43.0304 62.8838C42.8928 62.7461 42.8155 62.5594 42.8155 62.3648C42.8155 62.1702 42.8928 61.9835 43.0304 61.8459C43.1681 61.7082 43.3547 61.6309 43.5494 61.6309H49.4206C49.6153 61.6309 49.8019 61.7082 49.9396 61.8459C50.0772 61.9835 50.1545 62.1702 50.1545 62.3648Z" fill="#616161"/>
<path d="M34.7427 55.7597C34.7427 56.3436 34.9746 56.9036 35.3875 57.3165C35.8004 57.7294 36.3605 57.9614 36.9444 57.9614H42.8156C43.3996 57.9614 43.9596 57.7294 44.3725 57.3165C44.7854 56.9036 45.0174 56.3436 45.0174 55.7597V48.4206C45.0174 47.8367 44.7854 47.2766 44.3725 46.8637C43.9596 46.4508 43.3996 46.2189 42.8156 46.2189H36.9444C36.3605 46.2189 35.8004 46.4508 35.3875 46.8637C34.9746 47.2766 34.7427 47.8367 34.7427 48.4206V55.7597ZM36.2105 48.4206C36.2105 48.2259 36.2878 48.0393 36.4254 47.9016C36.5631 47.764 36.7498 47.6867 36.9444 47.6867H42.8156C43.0103 47.6867 43.197 47.764 43.3346 47.9016C43.4722 48.0393 43.5496 48.2259 43.5496 48.4206V55.7597C43.5496 55.9543 43.4722 56.141 43.3346 56.2786C43.197 56.4162 43.0103 56.4936 42.8156 56.4936H36.9444C36.7498 56.4936 36.5631 56.4162 36.4254 56.2786C36.2878 56.141 36.2105 55.9543 36.2105 55.7597V48.4206Z" fill="#616161"/>
<path d="M38.4121 51.3562H41.3478C41.5424 51.3562 41.7291 51.2789 41.8667 51.1413C42.0043 51.0037 42.0817 50.817 42.0817 50.6223C42.0817 50.4277 42.0043 50.241 41.8667 50.1034C41.7291 49.9657 41.5424 49.8884 41.3478 49.8884H38.4121C38.2175 49.8884 38.0308 49.9657 37.8932 50.1034C37.7555 50.241 37.6782 50.4277 37.6782 50.6223C37.6782 50.817 37.7555 51.0037 37.8932 51.1413C38.0308 51.2789 38.2175 51.3562 38.4121 51.3562Z" fill="#616161"/>
<path d="M38.4121 54.2919H41.3478C41.5424 54.2919 41.7291 54.2146 41.8667 54.077C42.0043 53.9393 42.0817 53.7526 42.0817 53.558C42.0817 53.3634 42.0043 53.1767 41.8667 53.0391C41.7291 52.9014 41.5424 52.8241 41.3478 52.8241H38.4121C38.2175 52.8241 38.0308 52.9014 37.8932 53.0391C37.7555 53.1767 37.6782 53.3634 37.6782 53.558C37.6782 53.7526 37.7555 53.9393 37.8932 54.077C38.0308 54.2146 38.2175 54.2919 38.4121 54.2919Z" fill="#616161"/>
<path d="M50.8882 55.0258C51.0031 55.0251 51.1162 54.9974 51.2185 54.945L55.6219 52.7433C55.7421 52.6817 55.843 52.5882 55.9134 52.4729C55.9839 52.3577 56.0212 52.2252 56.0212 52.0901C56.0212 51.9551 55.9839 51.8226 55.9134 51.7074C55.843 51.5921 55.7421 51.4986 55.6219 51.437L51.2185 49.2352C51.1067 49.1789 50.9825 49.1521 50.8575 49.1574C50.7325 49.1626 50.6109 49.1997 50.5043 49.2652C50.3977 49.3306 50.3095 49.4222 50.2483 49.5313C50.187 49.6404 50.1547 49.7633 50.1543 49.8884V54.2919C50.154 54.4166 50.1856 54.5393 50.2459 54.6485C50.3063 54.7576 50.3935 54.8496 50.4992 54.9157C50.616 54.9881 50.7508 55.0262 50.8882 55.0258ZM51.6221 51.0774L53.6477 52.0901L51.6221 53.1029V51.0774Z" fill="#616161"/>
<path d="M47.219 49.294C46.5425 50.5337 46.3354 51.9757 46.6359 53.3556C46.9363 54.7356 47.7241 55.961 48.8548 56.8072C49.9854 57.6534 51.3833 58.0637 52.7919 57.9629C54.2006 57.862 55.5257 57.2568 56.5243 56.2582C57.523 55.2596 58.1282 53.9345 58.229 52.5258C58.3298 51.1171 57.9195 49.7193 57.0733 48.5887C56.2271 47.458 55.0017 46.6702 53.6218 46.3698C52.2418 46.0693 50.7998 46.2763 49.5601 46.9529C49.3889 47.0502 49.2633 47.2116 49.211 47.4015C49.1586 47.5914 49.1839 47.7944 49.2813 47.9657C49.3786 48.137 49.54 48.2626 49.7299 48.3149C49.9198 48.3672 50.1228 48.3419 50.2941 48.2445C51.2246 47.7423 52.3048 47.5916 53.3373 47.8202C54.3698 48.0487 55.2855 48.6411 55.9172 49.4892C56.5488 50.3373 56.8542 51.3843 56.7775 52.439C56.7008 53.4937 56.2471 54.4855 55.4993 55.2332C54.7516 55.981 53.7598 56.4347 52.7051 56.5114C51.6504 56.5881 50.6034 56.2827 49.7553 55.6511C48.9072 55.0194 48.3148 54.1036 48.0863 53.0712C47.8577 52.0387 48.0084 50.9585 48.5107 50.0279C48.5589 49.9431 48.5899 49.8497 48.6019 49.7529C48.614 49.6561 48.6069 49.5578 48.581 49.4638C48.5551 49.3697 48.5109 49.2817 48.451 49.2047C48.3911 49.1278 48.3166 49.0633 48.2318 49.0152C48.147 48.967 48.0535 48.936 47.9567 48.9239C47.8599 48.9118 47.7617 48.9189 47.6676 48.9448C47.5736 48.9707 47.4856 49.0149 47.4086 49.0748C47.3316 49.1347 47.2672 49.2092 47.219 49.294Z" fill="#616161"/>
<path d="M34.7427 33.7425V41.0816C34.7427 41.6655 34.9746 42.2255 35.3875 42.6384C35.8004 43.0513 36.3605 43.2833 36.9444 43.2833H44.2835C44.8674 43.2833 45.4274 43.0513 45.8403 42.6384C46.2532 42.2255 46.4852 41.6655 46.4852 41.0816V33.7425C46.4852 33.5478 46.4079 33.3612 46.2702 33.2235C46.1326 33.0859 45.9459 33.0086 45.7513 33.0086C45.5566 33.0086 45.37 33.0859 45.2323 33.2235C45.0947 33.3612 45.0174 33.5478 45.0174 33.7425V40.9054L43.8358 38.5496C43.7742 38.4294 43.6806 38.3285 43.5654 38.258C43.4501 38.1876 43.3177 38.1503 43.1826 38.1503C43.0475 38.1503 42.9151 38.1876 42.7998 38.258C42.6846 38.3285 42.591 38.4294 42.5294 38.5496L41.7148 40.1715L39.7993 36.3479C39.7377 36.2276 39.6441 36.1268 39.5289 36.0563C39.4136 35.9859 39.2812 35.9486 39.1461 35.9486C39.011 35.9486 38.8786 35.9859 38.7633 36.0563C38.6481 36.1268 38.5545 36.2276 38.4929 36.3479L36.2105 40.9054V33.7425C36.2105 33.5478 36.2878 33.3612 36.4254 33.2235C36.5631 33.0859 36.7498 33.0086 36.9444 33.0086H37.3554C37.55 33.0086 37.7367 32.9313 37.8743 32.7936C38.012 32.656 38.0893 32.4693 38.0893 32.2747C38.0893 32.08 38.012 31.8934 37.8743 31.7557C37.7367 31.6181 37.55 31.5408 37.3554 31.5408H36.9444C36.3605 31.5408 35.8004 31.7727 35.3875 32.1856C34.9746 32.5985 34.7427 33.1586 34.7427 33.7425ZM43.1826 40.5238L43.8284 41.8155H42.5368L43.1826 40.5238ZM39.1461 38.3221L40.8928 41.8155H37.3994L39.1461 38.3221Z" fill="#616161"/>
<path d="M41.3477 35.9442C41.7832 35.9442 42.2089 35.8151 42.5709 35.5732C42.933 35.3312 43.2152 34.9874 43.3818 34.5851C43.5485 34.1827 43.5921 33.74 43.5071 33.313C43.4222 32.8859 43.2125 32.4936 42.9046 32.1856C42.5966 31.8777 42.2043 31.668 41.7772 31.5831C41.3502 31.4981 40.9075 31.5417 40.5052 31.7084C40.1028 31.875 39.759 32.1572 39.5171 32.5193C39.2751 32.8814 39.146 33.307 39.146 33.7425C39.146 34.3264 39.378 34.8864 39.7909 35.2993C40.2038 35.7122 40.7638 35.9442 41.3477 35.9442ZM41.3477 33.0086C41.4929 33.0086 41.6348 33.0516 41.7555 33.1323C41.8761 33.2129 41.9702 33.3275 42.0258 33.4616C42.0813 33.5957 42.0958 33.7433 42.0675 33.8857C42.0392 34.028 41.9693 34.1588 41.8667 34.2614C41.764 34.3641 41.6333 34.434 41.4909 34.4623C41.3485 34.4906 41.201 34.4761 41.0669 34.4205C40.9328 34.365 40.8181 34.2709 40.7375 34.1502C40.6569 34.0295 40.6138 33.8876 40.6138 33.7425C40.6138 33.5478 40.6911 33.3612 40.8288 33.2235C40.9664 33.0859 41.1531 33.0086 41.3477 33.0086Z" fill="#616161"/>
<path d="M55.2921 35.2103V32.2747C55.2921 31.6908 55.0601 31.1308 54.6472 30.7179C54.2343 30.305 53.6743 30.073 53.0904 30.073C52.5065 30.073 51.9464 30.305 51.5335 30.7179C51.1206 31.1308 50.8887 31.6908 50.8887 32.2747V35.2103C50.8887 35.7943 51.1206 36.3543 51.5335 36.7672C51.9464 37.1801 52.5065 37.4121 53.0904 37.4121C53.6743 37.4121 54.2343 37.1801 54.6472 36.7672C55.0601 36.3543 55.2921 35.7943 55.2921 35.2103ZM52.3565 35.2103V32.2747C52.3565 32.0801 52.4338 31.8934 52.5714 31.7558C52.7091 31.6181 52.8957 31.5408 53.0904 31.5408C53.285 31.5408 53.4717 31.6181 53.6093 31.7558C53.747 31.8934 53.8243 32.0801 53.8243 32.2747V35.2103C53.8243 35.405 53.747 35.5917 53.6093 35.7293C53.4717 35.8669 53.285 35.9442 53.0904 35.9442C52.8957 35.9442 52.7091 35.8669 52.5714 35.7293C52.4338 35.5917 52.3565 35.405 52.3565 35.2103Z" fill="#616161"/>
<path d="M49.4204 35.2103C49.4204 35.0157 49.3431 34.829 49.2055 34.6914C49.0679 34.5538 48.8812 34.4764 48.6865 34.4764C48.4919 34.4764 48.3052 34.5538 48.1676 34.6914C48.03 34.829 47.9526 35.0157 47.9526 35.2103C47.9541 36.4447 48.3999 37.6372 49.2085 38.5698C50.0171 39.5024 51.1344 40.1126 52.3561 40.289V41.8155H50.1544C49.9597 41.8155 49.773 41.8928 49.6354 42.0305C49.4978 42.1681 49.4204 42.3548 49.4204 42.5494C49.4204 42.7441 49.4978 42.9307 49.6354 43.0684C49.773 43.206 49.9597 43.2833 50.1544 43.2833H56.0256C56.2203 43.2833 56.4069 43.206 56.5446 43.0684C56.6822 42.9307 56.7595 42.7441 56.7595 42.5494C56.7595 42.3548 56.6822 42.1681 56.5446 42.0305C56.4069 41.8928 56.2203 41.8155 56.0256 41.8155H53.8239V40.289C55.0455 40.1126 56.1629 39.5024 56.9715 38.5698C57.7801 37.6372 58.2259 36.4447 58.2273 35.2103C58.2273 35.0157 58.15 34.829 58.0124 34.6914C57.8747 34.5538 57.6881 34.4764 57.4934 34.4764C57.2988 34.4764 57.1121 34.5538 56.9745 34.6914C56.8368 34.829 56.7595 35.0157 56.7595 35.2103C56.7595 36.1836 56.3729 37.1169 55.6847 37.8051C54.9966 38.4933 54.0632 38.8799 53.09 38.8799C52.1168 38.8799 51.1834 38.4933 50.4952 37.8051C49.8071 37.1169 49.4204 36.1836 49.4204 35.2103Z" fill="#616161"/>
<path d="M60.429 58.6954C60.2343 58.6954 60.0477 58.7727 59.91 58.9103C59.7724 59.0479 59.6951 59.2346 59.6951 59.4293V63.8327C59.6951 64.4166 59.4631 64.9766 59.0502 65.3895C58.6373 65.8024 58.0773 66.0344 57.4934 66.0344H35.4762C34.8922 66.0344 34.3322 65.8024 33.9193 65.3895C33.5064 64.9766 33.2745 64.4166 33.2745 63.8327V39.6138C33.2745 39.4191 33.1971 39.2325 33.0595 39.0948C32.9219 38.9572 32.7352 38.8799 32.5405 38.8799C32.3459 38.8799 32.1592 38.9572 32.0216 39.0948C31.884 39.2325 31.8066 39.4191 31.8066 39.6138V63.8327C31.8066 64.8059 32.1933 65.7393 32.8814 66.4274C33.5696 67.1156 34.503 67.5022 35.4762 67.5022H57.4934C58.4666 67.5022 59.3999 67.1156 60.0881 66.4274C60.7763 65.7393 61.1629 64.8059 61.1629 63.8327V59.4293C61.1629 59.2346 61.0856 59.0479 60.9479 58.9103C60.8103 58.7727 60.6236 58.6954 60.429 58.6954Z" fill="#616161"/>
<path d="M57.4934 23.4678H35.4762C34.503 23.4678 33.5696 23.8544 32.8814 24.5426C32.1933 25.2307 31.8066 26.1641 31.8066 27.1373V36.6781C31.8066 36.8727 31.884 37.0594 32.0216 37.197C32.1592 37.3347 32.3459 37.412 32.5405 37.412C32.7352 37.412 32.9219 37.3347 33.0595 37.197C33.1971 37.0594 33.2745 36.8727 33.2745 36.6781V27.1373C33.2745 26.5534 33.5064 25.9934 33.9193 25.5805C34.3322 25.1676 34.8922 24.9356 35.4762 24.9356H57.4934C58.0773 24.9356 58.6373 25.1676 59.0502 25.5805C59.4631 25.9934 59.6951 26.5534 59.6951 27.1373V56.4936C59.6951 56.6882 59.7724 56.8749 59.91 57.0125C60.0477 57.1501 60.2343 57.2275 60.429 57.2275C60.6236 57.2275 60.8103 57.1501 60.9479 57.0125C61.0856 56.8749 61.1629 56.6882 61.1629 56.4936V27.1373C61.1629 26.1641 60.7763 25.2307 60.0881 24.5426C59.3999 23.8544 58.4666 23.4678 57.4934 23.4678Z" fill="#616161"/>
<defs>
<linearGradient id="paint0_linear_137_691" x1="46" y1="0" x2="46" y2="92" gradientUnits="userSpaceOnUse">
<stop stop-color="#FFE9B1"/>
<stop offset="1" stop-color="#F9D371"/>
</linearGradient>
</defs>
</svg>
