<svg width="92" height="92" viewBox="0 0 92 92" fill="none" xmlns="http://www.w3.org/2000/svg">
<circle cx="46" cy="46" r="46" fill="url(#paint0_linear_137_791)"/>
<ellipse cx="45.8396" cy="69.4821" rx="31.6853" ry="0.965035" fill="#616161" fill-opacity="0.42"/>
<path d="M48.0268 23.5938H42.8481L43.6138 25.125H47.2612L48.0268 23.5938Z" fill="#616161"/>
<path d="M46.2031 26.6562H44.6719V28.1875H46.2031V26.6562Z" fill="#616161"/>
<path d="M30.8906 26.6562H29.3594V28.1875H30.8906V26.6562Z" fill="#616161"/>
<path d="M32.7143 23.5938H27.5356L28.3013 25.125H31.9487L32.7143 23.5938Z" fill="#616161"/>
<path d="M62.5737 23.5938H57.395L58.1606 25.125H61.8081L62.5737 23.5938Z" fill="#616161"/>
<path d="M25.5312 22.0625H65.3438C65.7499 22.0625 66.1393 21.9012 66.4265 21.614C66.7137 21.3268 66.875 20.9374 66.875 20.5312C66.875 20.1251 66.7137 19.7357 66.4265 19.4485C66.1393 19.1613 65.7499 19 65.3438 19H25.5312C25.1251 19 24.7357 19.1613 24.4485 19.4485C24.1613 19.7357 24 20.1251 24 20.5312C24 20.9374 24.1613 21.3268 24.4485 21.614C24.7357 21.9012 25.1251 22.0625 25.5312 22.0625V22.0625ZM64.5781 19.7656H66.1094V21.2969H64.5781V19.7656ZM61.5156 19.7656H63.0469V21.2969H61.5156V19.7656ZM58.4531 19.7656H59.9844V21.2969H58.4531V19.7656ZM55.3906 19.7656H56.9219V21.2969H55.3906V19.7656ZM52.3281 19.7656H53.8594V21.2969H52.3281V19.7656ZM49.2656 19.7656H50.7969V21.2969H49.2656V19.7656ZM46.2031 19.7656H47.7344V21.2969H46.2031V19.7656ZM43.1406 19.7656H44.6719V21.2969H43.1406V19.7656ZM40.0781 19.7656H41.6094V21.2969H40.0781V19.7656ZM37.0156 19.7656H38.5469V21.2969H37.0156V19.7656ZM33.9531 19.7656H35.4844V21.2969H33.9531V19.7656ZM30.8906 19.7656H32.4219V21.2969H30.8906V19.7656ZM27.8281 19.7656H29.3594V21.2969H27.8281V19.7656ZM24.7656 19.7656H26.2969V21.2969H24.7656V19.7656Z" fill="#616161"/>
<path d="M60.75 26.6562H59.2188V28.1875H60.75V26.6562Z" fill="#616161"/>
<path d="M45.4375 59.5781C45.8603 59.5781 46.2031 59.2353 46.2031 58.8125C46.2031 58.3897 45.8603 58.0469 45.4375 58.0469C45.0147 58.0469 44.6719 58.3897 44.6719 58.8125C44.6719 59.2353 45.0147 59.5781 45.4375 59.5781Z" fill="#616161"/>
<path d="M63.8125 59.5781C64.2353 59.5781 64.5781 59.2353 64.5781 58.8125C64.5781 58.3897 64.2353 58.0469 63.8125 58.0469C63.3897 58.0469 63.0469 58.3897 63.0469 58.8125C63.0469 59.2353 63.3897 59.5781 63.8125 59.5781Z" fill="#616161"/>
<path d="M63.8125 55.75H27.0625C26.2503 55.75 25.4713 56.0727 24.897 56.647C24.3227 57.2213 24 58.0003 24 58.8125C24 59.6247 24.3227 60.4037 24.897 60.978C25.4713 61.5523 26.2503 61.875 27.0625 61.875H63.8125C64.6247 61.875 65.4037 61.5523 65.978 60.978C66.5523 60.4037 66.875 59.6247 66.875 58.8125C66.875 58.0003 66.5523 57.2213 65.978 56.647C65.4037 56.0727 64.6247 55.75 63.8125 55.75ZM27.0625 61.1094C26.6082 61.1094 26.1641 60.9747 25.7864 60.7223C25.4087 60.4699 25.1143 60.1112 24.9405 59.6915C24.7666 59.2718 24.7211 58.81 24.8098 58.3644C24.8984 57.9189 25.1171 57.5096 25.4384 57.1884C25.7596 56.8671 26.1689 56.6484 26.6144 56.5598C27.06 56.4711 27.5218 56.5166 27.9415 56.6905C28.3612 56.8643 28.7199 57.1587 28.9723 57.5364C29.2247 57.9141 29.3594 58.3582 29.3594 58.8125C29.3594 59.4217 29.1174 60.0059 28.6866 60.4366C28.2559 60.8674 27.6717 61.1094 27.0625 61.1094V61.1094ZM33.1875 61.1094C32.7332 61.1094 32.2891 60.9747 31.9114 60.7223C31.5337 60.4699 31.2393 60.1112 31.0655 59.6915C30.8916 59.2718 30.8461 58.81 30.9348 58.3644C31.0234 57.9189 31.2421 57.5096 31.5634 57.1884C31.8846 56.8671 32.2939 56.6484 32.7394 56.5598C33.185 56.4711 33.6468 56.5166 34.0665 56.6905C34.4862 56.8643 34.8449 57.1587 35.0973 57.5364C35.3497 57.9141 35.4844 58.3582 35.4844 58.8125C35.4844 59.4217 35.2424 60.0059 34.8116 60.4366C34.3809 60.8674 33.7967 61.1094 33.1875 61.1094V61.1094ZM39.3125 61.1094C38.8582 61.1094 38.4141 60.9747 38.0364 60.7223C37.6587 60.4699 37.3643 60.1112 37.1905 59.6915C37.0166 59.2718 36.9711 58.81 37.0598 58.3644C37.1484 57.9189 37.3671 57.5096 37.6884 57.1884C38.0096 56.8671 38.4189 56.6484 38.8644 56.5598C39.31 56.4711 39.7718 56.5166 40.1915 56.6905C40.6112 56.8643 40.9699 57.1587 41.2223 57.5364C41.4747 57.9141 41.6094 58.3582 41.6094 58.8125C41.6094 59.4217 41.3674 60.0059 40.9366 60.4366C40.5059 60.8674 39.9217 61.1094 39.3125 61.1094V61.1094ZM45.4375 61.1094C44.9832 61.1094 44.5391 60.9747 44.1614 60.7223C43.7837 60.4699 43.4893 60.1112 43.3155 59.6915C43.1416 59.2718 43.0961 58.81 43.1848 58.3644C43.2734 57.9189 43.4921 57.5096 43.8134 57.1884C44.1346 56.8671 44.5439 56.6484 44.9894 56.5598C45.435 56.4711 45.8968 56.5166 46.3165 56.6905C46.7362 56.8643 47.0949 57.1587 47.3473 57.5364C47.5997 57.9141 47.7344 58.3582 47.7344 58.8125C47.7344 59.4217 47.4924 60.0059 47.0616 60.4366C46.6309 60.8674 46.0467 61.1094 45.4375 61.1094V61.1094ZM51.5625 61.1094C51.1082 61.1094 50.6641 60.9747 50.2864 60.7223C49.9087 60.4699 49.6143 60.1112 49.4405 59.6915C49.2666 59.2718 49.2211 58.81 49.3098 58.3644C49.3984 57.9189 49.6171 57.5096 49.9384 57.1884C50.2596 56.8671 50.6689 56.6484 51.1144 56.5598C51.56 56.4711 52.0218 56.5166 52.4415 56.6905C52.8612 56.8643 53.2199 57.1587 53.4723 57.5364C53.7247 57.9141 53.8594 58.3582 53.8594 58.8125C53.8594 59.4217 53.6174 60.0059 53.1866 60.4366C52.7559 60.8674 52.1717 61.1094 51.5625 61.1094V61.1094ZM57.6875 61.1094C57.2332 61.1094 56.7891 60.9747 56.4114 60.7223C56.0337 60.4699 55.7393 60.1112 55.5655 59.6915C55.3916 59.2718 55.3461 58.81 55.4348 58.3644C55.5234 57.9189 55.7421 57.5096 56.0634 57.1884C56.3846 56.8671 56.7939 56.6484 57.2394 56.5598C57.685 56.4711 58.1468 56.5166 58.5665 56.6905C58.9862 56.8643 59.3449 57.1587 59.5973 57.5364C59.8497 57.9141 59.9844 58.3582 59.9844 58.8125C59.9844 59.4217 59.7424 60.0059 59.3116 60.4366C58.8809 60.8674 58.2967 61.1094 57.6875 61.1094V61.1094ZM63.8125 61.1094C63.3582 61.1094 62.9141 60.9747 62.5364 60.7223C62.1587 60.4699 61.8643 60.1112 61.6905 59.6915C61.5166 59.2718 61.4711 58.81 61.5598 58.3644C61.6484 57.9189 61.8671 57.5096 62.1884 57.1884C62.5096 56.8671 62.9189 56.6484 63.3644 56.5598C63.81 56.4711 64.2718 56.5166 64.6915 56.6905C65.1112 56.8643 65.4699 57.1587 65.7223 57.5364C65.9747 57.9141 66.1094 58.3582 66.1094 58.8125C66.1094 59.4217 65.8674 60.0059 65.4366 60.4366C65.0059 60.8674 64.4217 61.1094 63.8125 61.1094V61.1094Z" fill="#616161"/>
<path d="M39.3125 59.5781C39.7353 59.5781 40.0781 59.2353 40.0781 58.8125C40.0781 58.3897 39.7353 58.0469 39.3125 58.0469C38.8897 58.0469 38.5469 58.3897 38.5469 58.8125C38.5469 59.2353 38.8897 59.5781 39.3125 59.5781Z" fill="#616161"/>
<path d="M57.6875 59.5781C58.1103 59.5781 58.4531 59.2353 58.4531 58.8125C58.4531 58.3897 58.1103 58.0469 57.6875 58.0469C57.2647 58.0469 56.9219 58.3897 56.9219 58.8125C56.9219 59.2353 57.2647 59.5781 57.6875 59.5781Z" fill="#616161"/>
<path d="M51.5625 59.5781C51.9853 59.5781 52.3281 59.2353 52.3281 58.8125C52.3281 58.3897 51.9853 58.0469 51.5625 58.0469C51.1397 58.0469 50.7969 58.3897 50.7969 58.8125C50.7969 59.2353 51.1397 59.5781 51.5625 59.5781Z" fill="#616161"/>
<path d="M65.3438 51.1562H25.5312C25.1251 51.1562 24.7357 51.3176 24.4485 51.6047C24.1613 51.8919 24 52.2814 24 52.6875C24 53.0936 24.1613 53.4831 24.4485 53.7703C24.7357 54.0574 25.1251 54.2188 25.5312 54.2188H65.3438C65.7499 54.2188 66.1393 54.0574 66.4265 53.7703C66.7137 53.4831 66.875 53.0936 66.875 52.6875C66.875 52.2814 66.7137 51.8919 66.4265 51.6047C66.1393 51.3176 65.7499 51.1562 65.3438 51.1562ZM26.2969 53.4531H24.7656V51.9219H26.2969V53.4531ZM29.3594 53.4531H27.8281V51.9219H29.3594V53.4531ZM32.4219 53.4531H30.8906V51.9219H32.4219V53.4531ZM35.4844 53.4531H33.9531V51.9219H35.4844V53.4531ZM38.5469 53.4531H37.0156V51.9219H38.5469V53.4531ZM41.6094 53.4531H40.0781V51.9219H41.6094V53.4531ZM44.6719 53.4531H43.1406V51.9219H44.6719V53.4531ZM47.7344 53.4531H46.2031V51.9219H47.7344V53.4531ZM50.7969 53.4531H49.2656V51.9219H50.7969V53.4531ZM53.8594 53.4531H52.3281V51.9219H53.8594V53.4531ZM56.9219 53.4531H55.3906V51.9219H56.9219V53.4531ZM59.9844 53.4531H58.4531V51.9219H59.9844V53.4531ZM63.0469 53.4531H61.5156V51.9219H63.0469V53.4531ZM66.1094 53.4531H64.5781V51.9219H66.1094V53.4531Z" fill="#616161"/>
<path d="M27.0625 59.5781C27.4853 59.5781 27.8281 59.2353 27.8281 58.8125C27.8281 58.3897 27.4853 58.0469 27.0625 58.0469C26.6397 58.0469 26.2969 58.3897 26.2969 58.8125C26.2969 59.2353 26.6397 59.5781 27.0625 59.5781Z" fill="#616161"/>
<path d="M33.1875 59.5781C33.6103 59.5781 33.9531 59.2353 33.9531 58.8125C33.9531 58.3897 33.6103 58.0469 33.1875 58.0469C32.7647 58.0469 32.4219 58.3897 32.4219 58.8125C32.4219 59.2353 32.7647 59.5781 33.1875 59.5781Z" fill="#616161"/>
<path d="M48.5 41.2031H42.375C41.9522 41.2031 41.6094 41.5459 41.6094 41.9688V45.7969C41.6094 46.2197 41.9522 46.5625 42.375 46.5625H48.5C48.9228 46.5625 49.2656 46.2197 49.2656 45.7969V41.9688C49.2656 41.5459 48.9228 41.2031 48.5 41.2031Z" fill="#616161"/>
<path d="M63.0469 41.2031H56.9219C56.499 41.2031 56.1562 41.5459 56.1562 41.9688V45.7969C56.1562 46.2197 56.499 46.5625 56.9219 46.5625H63.0469C63.4697 46.5625 63.8125 46.2197 63.8125 45.7969V41.9688C63.8125 41.5459 63.4697 41.2031 63.0469 41.2031Z" fill="#616161"/>
<path d="M33.1875 41.2031H27.0625C26.6397 41.2031 26.2969 41.5459 26.2969 41.9688V45.7969C26.2969 46.2197 26.6397 46.5625 27.0625 46.5625H33.1875C33.6103 46.5625 33.9531 46.2197 33.9531 45.7969V41.9688C33.9531 41.5459 33.6103 41.2031 33.1875 41.2031Z" fill="#616161"/>
<path d="M50.7969 38.1406V33.5469C50.7969 33.3861 50.7464 33.2294 50.6524 33.099C50.5584 32.9686 50.4257 32.8711 50.2732 32.8203L46.2031 31.4636V29.7188H44.6719V31.4636L40.6018 32.8203C40.4493 32.8711 40.3166 32.9686 40.2226 33.099C40.1286 33.2294 40.0781 33.3861 40.0781 33.5469V38.1406H41.6094V34.0989L45.4375 32.8226L49.2656 34.0989V38.1406H50.7969Z" fill="#616161"/>
<path d="M65.3438 38.1406V33.5469C65.3438 33.3861 65.2932 33.2294 65.1992 33.099C65.1052 32.9686 64.9726 32.8711 64.8201 32.8203L60.75 31.4636V29.7188H59.2188V31.4636L55.1487 32.8203C54.9962 32.8711 54.8635 32.9686 54.7695 33.099C54.6755 33.2294 54.625 33.3861 54.625 33.5469V38.1406H56.1562V34.0989L59.9844 32.8226L63.8125 34.0989V38.1406H65.3438Z" fill="#616161"/>
<path d="M35.4844 38.1406V33.5469C35.4844 33.3861 35.4339 33.2294 35.3399 33.099C35.2459 32.9686 35.1132 32.8711 34.9607 32.8203L30.8906 31.4636V29.7188H29.3594V31.4636L25.2893 32.8203C25.1368 32.8711 25.0041 32.9686 24.9101 33.099C24.8161 33.2294 24.7656 33.3861 24.7656 33.5469V38.1406H26.2969V34.0989L30.125 32.8226L33.9531 34.0989V38.1406H35.4844Z" fill="#616161"/>
<defs>
<linearGradient id="paint0_linear_137_791" x1="46" y1="0" x2="46" y2="92" gradientUnits="userSpaceOnUse">
<stop stop-color="#FFE9B1"/>
<stop offset="1" stop-color="#F9D371"/>
</linearGradient>
</defs>
</svg>
